<?xml version="1.0" encoding="utf-8" standalone="no"?>
<!DOCTYPE svg PUBLIC "-//W3C//DTD SVG 1.1//EN"
  "http://www.w3.org/Graphics/SVG/1.1/DTD/svg11.dtd">
<svg xmlns:xlink="http://www.w3.org/1999/xlink" width="330.259375pt" height="331.192656pt" viewBox="0 0 330.259375 331.192656" xmlns="http://www.w3.org/2000/svg" version="1.1">
 <metadata>
  <rdf:RDF xmlns:dc="http://purl.org/dc/elements/1.1/" xmlns:cc="http://creativecommons.org/ns#" xmlns:rdf="http://www.w3.org/1999/02/22-rdf-syntax-ns#">
   <cc:Work>
    <dc:type rdf:resource="http://purl.org/dc/dcmitype/StillImage"/>
    <dc:date>2023-10-03T17:45:52.491086</dc:date>
    <dc:format>image/svg+xml</dc:format>
    <dc:creator>
     <cc:Agent>
      <dc:title>Matplotlib v3.5.0, https://matplotlib.org/</dc:title>
     </cc:Agent>
    </dc:creator>
   </cc:Work>
  </rdf:RDF>
 </metadata>
 <defs>
  <style type="text/css">*{stroke-linejoin: round; stroke-linecap: butt}</style>
 </defs>
 <g id="figure_1">
  <g id="patch_1">
   <path d="M 0 331.192656 
L 330.259375 331.192656 
L 330.259375 0 
L 0 0 
L 0 331.192656 
z
" style="fill: none"/>
  </g>
  <g id="axes_1">
   <g id="patch_2">
    <path d="M 44.059375 293.358281 
L 323.059375 293.358281 
L 323.059375 21.558281 
L 44.059375 21.558281 
z
" style="fill: #ffffff"/>
   </g>
   <g id="patch_3">
    <path d="M 185.611779 207.040754 
L 186.147495 220.704767 
L 182.007885 219.5295 
L 170.99931 256.329212 
L 170.755804 256.260078 
L 181.764378 219.460367 
L 177.624768 218.285099 
z
" clip-path="url(#p319560198c)"/>
   </g>
   <g id="patch_4">
    <path d="M 165.170739 257.530099 
L 151.468029 260.493101 
L 151.912772 256.31496 
L 76.876518 248.734639 
L 76.90268 248.488866 
L 151.938933 256.069187 
L 152.383676 251.891045 
z
" clip-path="url(#p319560198c)" style="fill: #ff0000; stroke: #ff0000; stroke-width: 2; stroke-linejoin: miter"/>
   </g>
   <g id="matplotlib.axis_1">
    <g id="xtick_1">
     <g id="line2d_1">
      <defs>
       <path id="mb4530a7549" d="M 0 0 
L 0 3.5 
" style="stroke: #000000; stroke-width: 0.8"/>
      </defs>
      <g>
       <use xlink:href="#mb4530a7549" x="56.741193" y="293.358281" style="stroke: #000000; stroke-width: 0.8"/>
      </g>
     </g>
     <g id="text_1">
      <!-- 0.0 -->
      <g transform="translate(48.789631 307.956719)scale(0.1 -0.1)">
       <defs>
        <path id="DejaVuSans-30" d="M 2034 4250 
Q 1547 4250 1301 3770 
Q 1056 3291 1056 2328 
Q 1056 1369 1301 889 
Q 1547 409 2034 409 
Q 2525 409 2770 889 
Q 3016 1369 3016 2328 
Q 3016 3291 2770 3770 
Q 2525 4250 2034 4250 
z
M 2034 4750 
Q 2819 4750 3233 4129 
Q 3647 3509 3647 2328 
Q 3647 1150 3233 529 
Q 2819 -91 2034 -91 
Q 1250 -91 836 529 
Q 422 1150 422 2328 
Q 422 3509 836 4129 
Q 1250 4750 2034 4750 
z
" transform="scale(0.015625)"/>
        <path id="DejaVuSans-2e" d="M 684 794 
L 1344 794 
L 1344 0 
L 684 0 
L 684 794 
z
" transform="scale(0.015625)"/>
       </defs>
       <use xlink:href="#DejaVuSans-30"/>
       <use xlink:href="#DejaVuSans-2e" x="63.623047"/>
       <use xlink:href="#DejaVuSans-30" x="95.410156"/>
      </g>
     </g>
    </g>
    <g id="xtick_2">
     <g id="line2d_2">
      <g>
       <use xlink:href="#mb4530a7549" x="107.468466" y="293.358281" style="stroke: #000000; stroke-width: 0.8"/>
      </g>
     </g>
     <g id="text_2">
      <!-- 0.2 -->
      <g transform="translate(99.516903 307.956719)scale(0.1 -0.1)">
       <defs>
        <path id="DejaVuSans-32" d="M 1228 531 
L 3431 531 
L 3431 0 
L 469 0 
L 469 531 
Q 828 903 1448 1529 
Q 2069 2156 2228 2338 
Q 2531 2678 2651 2914 
Q 2772 3150 2772 3378 
Q 2772 3750 2511 3984 
Q 2250 4219 1831 4219 
Q 1534 4219 1204 4116 
Q 875 4013 500 3803 
L 500 4441 
Q 881 4594 1212 4672 
Q 1544 4750 1819 4750 
Q 2544 4750 2975 4387 
Q 3406 4025 3406 3419 
Q 3406 3131 3298 2873 
Q 3191 2616 2906 2266 
Q 2828 2175 2409 1742 
Q 1991 1309 1228 531 
z
" transform="scale(0.015625)"/>
       </defs>
       <use xlink:href="#DejaVuSans-30"/>
       <use xlink:href="#DejaVuSans-2e" x="63.623047"/>
       <use xlink:href="#DejaVuSans-32" x="95.410156"/>
      </g>
     </g>
    </g>
    <g id="xtick_3">
     <g id="line2d_3">
      <g>
       <use xlink:href="#mb4530a7549" x="158.195739" y="293.358281" style="stroke: #000000; stroke-width: 0.8"/>
      </g>
     </g>
     <g id="text_3">
      <!-- 0.4 -->
      <g transform="translate(150.244176 307.956719)scale(0.1 -0.1)">
       <defs>
        <path id="DejaVuSans-34" d="M 2419 4116 
L 825 1625 
L 2419 1625 
L 2419 4116 
z
M 2253 4666 
L 3047 4666 
L 3047 1625 
L 3713 1625 
L 3713 1100 
L 3047 1100 
L 3047 0 
L 2419 0 
L 2419 1100 
L 313 1100 
L 313 1709 
L 2253 4666 
z
" transform="scale(0.015625)"/>
       </defs>
       <use xlink:href="#DejaVuSans-30"/>
       <use xlink:href="#DejaVuSans-2e" x="63.623047"/>
       <use xlink:href="#DejaVuSans-34" x="95.410156"/>
      </g>
     </g>
    </g>
    <g id="xtick_4">
     <g id="line2d_4">
      <g>
       <use xlink:href="#mb4530a7549" x="208.923011" y="293.358281" style="stroke: #000000; stroke-width: 0.8"/>
      </g>
     </g>
     <g id="text_4">
      <!-- 0.6 -->
      <g transform="translate(200.971449 307.956719)scale(0.1 -0.1)">
       <defs>
        <path id="DejaVuSans-36" d="M 2113 2584 
Q 1688 2584 1439 2293 
Q 1191 2003 1191 1497 
Q 1191 994 1439 701 
Q 1688 409 2113 409 
Q 2538 409 2786 701 
Q 3034 994 3034 1497 
Q 3034 2003 2786 2293 
Q 2538 2584 2113 2584 
z
M 3366 4563 
L 3366 3988 
Q 3128 4100 2886 4159 
Q 2644 4219 2406 4219 
Q 1781 4219 1451 3797 
Q 1122 3375 1075 2522 
Q 1259 2794 1537 2939 
Q 1816 3084 2150 3084 
Q 2853 3084 3261 2657 
Q 3669 2231 3669 1497 
Q 3669 778 3244 343 
Q 2819 -91 2113 -91 
Q 1303 -91 875 529 
Q 447 1150 447 2328 
Q 447 3434 972 4092 
Q 1497 4750 2381 4750 
Q 2619 4750 2861 4703 
Q 3103 4656 3366 4563 
z
" transform="scale(0.015625)"/>
       </defs>
       <use xlink:href="#DejaVuSans-30"/>
       <use xlink:href="#DejaVuSans-2e" x="63.623047"/>
       <use xlink:href="#DejaVuSans-36" x="95.410156"/>
      </g>
     </g>
    </g>
    <g id="xtick_5">
     <g id="line2d_5">
      <g>
       <use xlink:href="#mb4530a7549" x="259.650284" y="293.358281" style="stroke: #000000; stroke-width: 0.8"/>
      </g>
     </g>
     <g id="text_5">
      <!-- 0.8 -->
      <g transform="translate(251.698722 307.956719)scale(0.1 -0.1)">
       <defs>
        <path id="DejaVuSans-38" d="M 2034 2216 
Q 1584 2216 1326 1975 
Q 1069 1734 1069 1313 
Q 1069 891 1326 650 
Q 1584 409 2034 409 
Q 2484 409 2743 651 
Q 3003 894 3003 1313 
Q 3003 1734 2745 1975 
Q 2488 2216 2034 2216 
z
M 1403 2484 
Q 997 2584 770 2862 
Q 544 3141 544 3541 
Q 544 4100 942 4425 
Q 1341 4750 2034 4750 
Q 2731 4750 3128 4425 
Q 3525 4100 3525 3541 
Q 3525 3141 3298 2862 
Q 3072 2584 2669 2484 
Q 3125 2378 3379 2068 
Q 3634 1759 3634 1313 
Q 3634 634 3220 271 
Q 2806 -91 2034 -91 
Q 1263 -91 848 271 
Q 434 634 434 1313 
Q 434 1759 690 2068 
Q 947 2378 1403 2484 
z
M 1172 3481 
Q 1172 3119 1398 2916 
Q 1625 2713 2034 2713 
Q 2441 2713 2670 2916 
Q 2900 3119 2900 3481 
Q 2900 3844 2670 4047 
Q 2441 4250 2034 4250 
Q 1625 4250 1398 4047 
Q 1172 3844 1172 3481 
z
" transform="scale(0.015625)"/>
       </defs>
       <use xlink:href="#DejaVuSans-30"/>
       <use xlink:href="#DejaVuSans-2e" x="63.623047"/>
       <use xlink:href="#DejaVuSans-38" x="95.410156"/>
      </g>
     </g>
    </g>
    <g id="xtick_6">
     <g id="line2d_6">
      <g>
       <use xlink:href="#mb4530a7549" x="310.377557" y="293.358281" style="stroke: #000000; stroke-width: 0.8"/>
      </g>
     </g>
     <g id="text_6">
      <!-- 1.0 -->
      <g transform="translate(302.425994 307.956719)scale(0.1 -0.1)">
       <defs>
        <path id="DejaVuSans-31" d="M 794 531 
L 1825 531 
L 1825 4091 
L 703 3866 
L 703 4441 
L 1819 4666 
L 2450 4666 
L 2450 531 
L 3481 531 
L 3481 0 
L 794 0 
L 794 531 
z
" transform="scale(0.015625)"/>
       </defs>
       <use xlink:href="#DejaVuSans-31"/>
       <use xlink:href="#DejaVuSans-2e" x="63.623047"/>
       <use xlink:href="#DejaVuSans-30" x="95.410156"/>
      </g>
     </g>
    </g>
    <g id="text_7">
     <!-- Mean excitatory activity (m_e) -->
     <g transform="translate(107.332031 321.634844)scale(0.1 -0.1)">
      <defs>
       <path id="DejaVuSans-4d" d="M 628 4666 
L 1569 4666 
L 2759 1491 
L 3956 4666 
L 4897 4666 
L 4897 0 
L 4281 0 
L 4281 4097 
L 3078 897 
L 2444 897 
L 1241 4097 
L 1241 0 
L 628 0 
L 628 4666 
z
" transform="scale(0.015625)"/>
       <path id="DejaVuSans-65" d="M 3597 1894 
L 3597 1613 
L 953 1613 
Q 991 1019 1311 708 
Q 1631 397 2203 397 
Q 2534 397 2845 478 
Q 3156 559 3463 722 
L 3463 178 
Q 3153 47 2828 -22 
Q 2503 -91 2169 -91 
Q 1331 -91 842 396 
Q 353 884 353 1716 
Q 353 2575 817 3079 
Q 1281 3584 2069 3584 
Q 2775 3584 3186 3129 
Q 3597 2675 3597 1894 
z
M 3022 2063 
Q 3016 2534 2758 2815 
Q 2500 3097 2075 3097 
Q 1594 3097 1305 2825 
Q 1016 2553 972 2059 
L 3022 2063 
z
" transform="scale(0.015625)"/>
       <path id="DejaVuSans-61" d="M 2194 1759 
Q 1497 1759 1228 1600 
Q 959 1441 959 1056 
Q 959 750 1161 570 
Q 1363 391 1709 391 
Q 2188 391 2477 730 
Q 2766 1069 2766 1631 
L 2766 1759 
L 2194 1759 
z
M 3341 1997 
L 3341 0 
L 2766 0 
L 2766 531 
Q 2569 213 2275 61 
Q 1981 -91 1556 -91 
Q 1019 -91 701 211 
Q 384 513 384 1019 
Q 384 1609 779 1909 
Q 1175 2209 1959 2209 
L 2766 2209 
L 2766 2266 
Q 2766 2663 2505 2880 
Q 2244 3097 1772 3097 
Q 1472 3097 1187 3025 
Q 903 2953 641 2809 
L 641 3341 
Q 956 3463 1253 3523 
Q 1550 3584 1831 3584 
Q 2591 3584 2966 3190 
Q 3341 2797 3341 1997 
z
" transform="scale(0.015625)"/>
       <path id="DejaVuSans-6e" d="M 3513 2113 
L 3513 0 
L 2938 0 
L 2938 2094 
Q 2938 2591 2744 2837 
Q 2550 3084 2163 3084 
Q 1697 3084 1428 2787 
Q 1159 2491 1159 1978 
L 1159 0 
L 581 0 
L 581 3500 
L 1159 3500 
L 1159 2956 
Q 1366 3272 1645 3428 
Q 1925 3584 2291 3584 
Q 2894 3584 3203 3211 
Q 3513 2838 3513 2113 
z
" transform="scale(0.015625)"/>
       <path id="DejaVuSans-20" transform="scale(0.015625)"/>
       <path id="DejaVuSans-78" d="M 3513 3500 
L 2247 1797 
L 3578 0 
L 2900 0 
L 1881 1375 
L 863 0 
L 184 0 
L 1544 1831 
L 300 3500 
L 978 3500 
L 1906 2253 
L 2834 3500 
L 3513 3500 
z
" transform="scale(0.015625)"/>
       <path id="DejaVuSans-63" d="M 3122 3366 
L 3122 2828 
Q 2878 2963 2633 3030 
Q 2388 3097 2138 3097 
Q 1578 3097 1268 2742 
Q 959 2388 959 1747 
Q 959 1106 1268 751 
Q 1578 397 2138 397 
Q 2388 397 2633 464 
Q 2878 531 3122 666 
L 3122 134 
Q 2881 22 2623 -34 
Q 2366 -91 2075 -91 
Q 1284 -91 818 406 
Q 353 903 353 1747 
Q 353 2603 823 3093 
Q 1294 3584 2113 3584 
Q 2378 3584 2631 3529 
Q 2884 3475 3122 3366 
z
" transform="scale(0.015625)"/>
       <path id="DejaVuSans-69" d="M 603 3500 
L 1178 3500 
L 1178 0 
L 603 0 
L 603 3500 
z
M 603 4863 
L 1178 4863 
L 1178 4134 
L 603 4134 
L 603 4863 
z
" transform="scale(0.015625)"/>
       <path id="DejaVuSans-74" d="M 1172 4494 
L 1172 3500 
L 2356 3500 
L 2356 3053 
L 1172 3053 
L 1172 1153 
Q 1172 725 1289 603 
Q 1406 481 1766 481 
L 2356 481 
L 2356 0 
L 1766 0 
Q 1100 0 847 248 
Q 594 497 594 1153 
L 594 3053 
L 172 3053 
L 172 3500 
L 594 3500 
L 594 4494 
L 1172 4494 
z
" transform="scale(0.015625)"/>
       <path id="DejaVuSans-6f" d="M 1959 3097 
Q 1497 3097 1228 2736 
Q 959 2375 959 1747 
Q 959 1119 1226 758 
Q 1494 397 1959 397 
Q 2419 397 2687 759 
Q 2956 1122 2956 1747 
Q 2956 2369 2687 2733 
Q 2419 3097 1959 3097 
z
M 1959 3584 
Q 2709 3584 3137 3096 
Q 3566 2609 3566 1747 
Q 3566 888 3137 398 
Q 2709 -91 1959 -91 
Q 1206 -91 779 398 
Q 353 888 353 1747 
Q 353 2609 779 3096 
Q 1206 3584 1959 3584 
z
" transform="scale(0.015625)"/>
       <path id="DejaVuSans-72" d="M 2631 2963 
Q 2534 3019 2420 3045 
Q 2306 3072 2169 3072 
Q 1681 3072 1420 2755 
Q 1159 2438 1159 1844 
L 1159 0 
L 581 0 
L 581 3500 
L 1159 3500 
L 1159 2956 
Q 1341 3275 1631 3429 
Q 1922 3584 2338 3584 
Q 2397 3584 2469 3576 
Q 2541 3569 2628 3553 
L 2631 2963 
z
" transform="scale(0.015625)"/>
       <path id="DejaVuSans-79" d="M 2059 -325 
Q 1816 -950 1584 -1140 
Q 1353 -1331 966 -1331 
L 506 -1331 
L 506 -850 
L 844 -850 
Q 1081 -850 1212 -737 
Q 1344 -625 1503 -206 
L 1606 56 
L 191 3500 
L 800 3500 
L 1894 763 
L 2988 3500 
L 3597 3500 
L 2059 -325 
z
" transform="scale(0.015625)"/>
       <path id="DejaVuSans-76" d="M 191 3500 
L 800 3500 
L 1894 563 
L 2988 3500 
L 3597 3500 
L 2284 0 
L 1503 0 
L 191 3500 
z
" transform="scale(0.015625)"/>
       <path id="DejaVuSans-28" d="M 1984 4856 
Q 1566 4138 1362 3434 
Q 1159 2731 1159 2009 
Q 1159 1288 1364 580 
Q 1569 -128 1984 -844 
L 1484 -844 
Q 1016 -109 783 600 
Q 550 1309 550 2009 
Q 550 2706 781 3412 
Q 1013 4119 1484 4856 
L 1984 4856 
z
" transform="scale(0.015625)"/>
       <path id="DejaVuSans-6d" d="M 3328 2828 
Q 3544 3216 3844 3400 
Q 4144 3584 4550 3584 
Q 5097 3584 5394 3201 
Q 5691 2819 5691 2113 
L 5691 0 
L 5113 0 
L 5113 2094 
Q 5113 2597 4934 2840 
Q 4756 3084 4391 3084 
Q 3944 3084 3684 2787 
Q 3425 2491 3425 1978 
L 3425 0 
L 2847 0 
L 2847 2094 
Q 2847 2600 2669 2842 
Q 2491 3084 2119 3084 
Q 1678 3084 1418 2786 
Q 1159 2488 1159 1978 
L 1159 0 
L 581 0 
L 581 3500 
L 1159 3500 
L 1159 2956 
Q 1356 3278 1631 3431 
Q 1906 3584 2284 3584 
Q 2666 3584 2933 3390 
Q 3200 3197 3328 2828 
z
" transform="scale(0.015625)"/>
       <path id="DejaVuSans-5f" d="M 3263 -1063 
L 3263 -1509 
L -63 -1509 
L -63 -1063 
L 3263 -1063 
z
" transform="scale(0.015625)"/>
       <path id="DejaVuSans-29" d="M 513 4856 
L 1013 4856 
Q 1481 4119 1714 3412 
Q 1947 2706 1947 2009 
Q 1947 1309 1714 600 
Q 1481 -109 1013 -844 
L 513 -844 
Q 928 -128 1133 580 
Q 1338 1288 1338 2009 
Q 1338 2731 1133 3434 
Q 928 4138 513 4856 
z
" transform="scale(0.015625)"/>
      </defs>
      <use xlink:href="#DejaVuSans-4d"/>
      <use xlink:href="#DejaVuSans-65" x="86.279297"/>
      <use xlink:href="#DejaVuSans-61" x="147.802734"/>
      <use xlink:href="#DejaVuSans-6e" x="209.082031"/>
      <use xlink:href="#DejaVuSans-20" x="272.460938"/>
      <use xlink:href="#DejaVuSans-65" x="304.248047"/>
      <use xlink:href="#DejaVuSans-78" x="364.021484"/>
      <use xlink:href="#DejaVuSans-63" x="421.451172"/>
      <use xlink:href="#DejaVuSans-69" x="476.431641"/>
      <use xlink:href="#DejaVuSans-74" x="504.214844"/>
      <use xlink:href="#DejaVuSans-61" x="543.423828"/>
      <use xlink:href="#DejaVuSans-74" x="604.703125"/>
      <use xlink:href="#DejaVuSans-6f" x="643.912109"/>
      <use xlink:href="#DejaVuSans-72" x="705.09375"/>
      <use xlink:href="#DejaVuSans-79" x="746.207031"/>
      <use xlink:href="#DejaVuSans-20" x="805.386719"/>
      <use xlink:href="#DejaVuSans-61" x="837.173828"/>
      <use xlink:href="#DejaVuSans-63" x="898.453125"/>
      <use xlink:href="#DejaVuSans-74" x="953.433594"/>
      <use xlink:href="#DejaVuSans-69" x="992.642578"/>
      <use xlink:href="#DejaVuSans-76" x="1020.425781"/>
      <use xlink:href="#DejaVuSans-69" x="1079.605469"/>
      <use xlink:href="#DejaVuSans-74" x="1107.388672"/>
      <use xlink:href="#DejaVuSans-79" x="1146.597656"/>
      <use xlink:href="#DejaVuSans-20" x="1205.777344"/>
      <use xlink:href="#DejaVuSans-28" x="1237.564453"/>
      <use xlink:href="#DejaVuSans-6d" x="1276.578125"/>
      <use xlink:href="#DejaVuSans-5f" x="1373.990234"/>
      <use xlink:href="#DejaVuSans-65" x="1423.990234"/>
      <use xlink:href="#DejaVuSans-29" x="1485.513672"/>
     </g>
    </g>
   </g>
   <g id="matplotlib.axis_2">
    <g id="ytick_1">
     <g id="line2d_7">
      <defs>
       <path id="mb4ebee443e" d="M 0 0 
L -3.5 0 
" style="stroke: #000000; stroke-width: 0.8"/>
      </defs>
      <g>
       <use xlink:href="#mb4ebee443e" x="44.059375" y="281.003736" style="stroke: #000000; stroke-width: 0.8"/>
      </g>
     </g>
     <g id="text_8">
      <!-- 0.0 -->
      <g transform="translate(21.15625 284.802955)scale(0.1 -0.1)">
       <use xlink:href="#DejaVuSans-30"/>
       <use xlink:href="#DejaVuSans-2e" x="63.623047"/>
       <use xlink:href="#DejaVuSans-30" x="95.410156"/>
      </g>
     </g>
    </g>
    <g id="ytick_2">
     <g id="line2d_8">
      <g>
       <use xlink:href="#mb4ebee443e" x="44.059375" y="231.585554" style="stroke: #000000; stroke-width: 0.8"/>
      </g>
     </g>
     <g id="text_9">
      <!-- 0.2 -->
      <g transform="translate(21.15625 235.384773)scale(0.1 -0.1)">
       <use xlink:href="#DejaVuSans-30"/>
       <use xlink:href="#DejaVuSans-2e" x="63.623047"/>
       <use xlink:href="#DejaVuSans-32" x="95.410156"/>
      </g>
     </g>
    </g>
    <g id="ytick_3">
     <g id="line2d_9">
      <g>
       <use xlink:href="#mb4ebee443e" x="44.059375" y="182.167372" style="stroke: #000000; stroke-width: 0.8"/>
      </g>
     </g>
     <g id="text_10">
      <!-- 0.4 -->
      <g transform="translate(21.15625 185.966591)scale(0.1 -0.1)">
       <use xlink:href="#DejaVuSans-30"/>
       <use xlink:href="#DejaVuSans-2e" x="63.623047"/>
       <use xlink:href="#DejaVuSans-34" x="95.410156"/>
      </g>
     </g>
    </g>
    <g id="ytick_4">
     <g id="line2d_10">
      <g>
       <use xlink:href="#mb4ebee443e" x="44.059375" y="132.74919" style="stroke: #000000; stroke-width: 0.8"/>
      </g>
     </g>
     <g id="text_11">
      <!-- 0.6 -->
      <g transform="translate(21.15625 136.548409)scale(0.1 -0.1)">
       <use xlink:href="#DejaVuSans-30"/>
       <use xlink:href="#DejaVuSans-2e" x="63.623047"/>
       <use xlink:href="#DejaVuSans-36" x="95.410156"/>
      </g>
     </g>
    </g>
    <g id="ytick_5">
     <g id="line2d_11">
      <g>
       <use xlink:href="#mb4ebee443e" x="44.059375" y="83.331009" style="stroke: #000000; stroke-width: 0.8"/>
      </g>
     </g>
     <g id="text_12">
      <!-- 0.8 -->
      <g transform="translate(21.15625 87.130227)scale(0.1 -0.1)">
       <use xlink:href="#DejaVuSans-30"/>
       <use xlink:href="#DejaVuSans-2e" x="63.623047"/>
       <use xlink:href="#DejaVuSans-38" x="95.410156"/>
      </g>
     </g>
    </g>
    <g id="ytick_6">
     <g id="line2d_12">
      <g>
       <use xlink:href="#mb4ebee443e" x="44.059375" y="33.912827" style="stroke: #000000; stroke-width: 0.8"/>
      </g>
     </g>
     <g id="text_13">
      <!-- 1.0 -->
      <g transform="translate(21.15625 37.712045)scale(0.1 -0.1)">
       <use xlink:href="#DejaVuSans-31"/>
       <use xlink:href="#DejaVuSans-2e" x="63.623047"/>
       <use xlink:href="#DejaVuSans-30" x="95.410156"/>
      </g>
     </g>
    </g>
    <g id="text_14">
     <!-- Mean inhibitory activity (m_i) -->
     <g transform="translate(14.798438 230.653594)rotate(-90)scale(0.1 -0.1)">
      <defs>
       <path id="DejaVuSans-68" d="M 3513 2113 
L 3513 0 
L 2938 0 
L 2938 2094 
Q 2938 2591 2744 2837 
Q 2550 3084 2163 3084 
Q 1697 3084 1428 2787 
Q 1159 2491 1159 1978 
L 1159 0 
L 581 0 
L 581 4863 
L 1159 4863 
L 1159 2956 
Q 1366 3272 1645 3428 
Q 1925 3584 2291 3584 
Q 2894 3584 3203 3211 
Q 3513 2838 3513 2113 
z
" transform="scale(0.015625)"/>
       <path id="DejaVuSans-62" d="M 3116 1747 
Q 3116 2381 2855 2742 
Q 2594 3103 2138 3103 
Q 1681 3103 1420 2742 
Q 1159 2381 1159 1747 
Q 1159 1113 1420 752 
Q 1681 391 2138 391 
Q 2594 391 2855 752 
Q 3116 1113 3116 1747 
z
M 1159 2969 
Q 1341 3281 1617 3432 
Q 1894 3584 2278 3584 
Q 2916 3584 3314 3078 
Q 3713 2572 3713 1747 
Q 3713 922 3314 415 
Q 2916 -91 2278 -91 
Q 1894 -91 1617 61 
Q 1341 213 1159 525 
L 1159 0 
L 581 0 
L 581 4863 
L 1159 4863 
L 1159 2969 
z
" transform="scale(0.015625)"/>
      </defs>
      <use xlink:href="#DejaVuSans-4d"/>
      <use xlink:href="#DejaVuSans-65" x="86.279297"/>
      <use xlink:href="#DejaVuSans-61" x="147.802734"/>
      <use xlink:href="#DejaVuSans-6e" x="209.082031"/>
      <use xlink:href="#DejaVuSans-20" x="272.460938"/>
      <use xlink:href="#DejaVuSans-69" x="304.248047"/>
      <use xlink:href="#DejaVuSans-6e" x="332.03125"/>
      <use xlink:href="#DejaVuSans-68" x="395.410156"/>
      <use xlink:href="#DejaVuSans-69" x="458.789062"/>
      <use xlink:href="#DejaVuSans-62" x="486.572266"/>
      <use xlink:href="#DejaVuSans-69" x="550.048828"/>
      <use xlink:href="#DejaVuSans-74" x="577.832031"/>
      <use xlink:href="#DejaVuSans-6f" x="617.041016"/>
      <use xlink:href="#DejaVuSans-72" x="678.222656"/>
      <use xlink:href="#DejaVuSans-79" x="719.335938"/>
      <use xlink:href="#DejaVuSans-20" x="778.515625"/>
      <use xlink:href="#DejaVuSans-61" x="810.302734"/>
      <use xlink:href="#DejaVuSans-63" x="871.582031"/>
      <use xlink:href="#DejaVuSans-74" x="926.5625"/>
      <use xlink:href="#DejaVuSans-69" x="965.771484"/>
      <use xlink:href="#DejaVuSans-76" x="993.554688"/>
      <use xlink:href="#DejaVuSans-69" x="1052.734375"/>
      <use xlink:href="#DejaVuSans-74" x="1080.517578"/>
      <use xlink:href="#DejaVuSans-79" x="1119.726562"/>
      <use xlink:href="#DejaVuSans-20" x="1178.90625"/>
      <use xlink:href="#DejaVuSans-28" x="1210.693359"/>
      <use xlink:href="#DejaVuSans-6d" x="1249.707031"/>
      <use xlink:href="#DejaVuSans-5f" x="1347.119141"/>
      <use xlink:href="#DejaVuSans-69" x="1397.119141"/>
      <use xlink:href="#DejaVuSans-29" x="1424.902344"/>
     </g>
    </g>
   </g>
   <g id="line2d_13">
    <path d="M 56.741193 33.912827 
L 56.741193 119.406281 
L 56.741193 65.046281 
L 56.99483 145.597918 
L 56.99483 128.795736 
L 57.248466 158.446645 
L 57.248466 146.092099 
L 57.502102 167.341918 
L 57.502102 163.388463 
L 57.755739 173.766281 
L 57.755739 171.295372 
L 57.755739 167.836099 
L 57.755739 170.80119 
L 58.009375 179.202281 
L 58.009375 175.743009 
L 58.009375 174.260463 
L 58.009375 176.731372 
L 58.263011 183.649918 
L 58.263011 180.684827 
L 58.263011 179.696463 
L 58.263011 181.67319 
L 58.516648 187.603372 
L 58.516648 184.638281 
L 58.516648 184.144099 
L 58.516648 185.626645 
L 58.770284 191.062645 
L 58.770284 188.591736 
L 58.770284 188.097554 
L 58.770284 189.580099 
L 59.02392 192.051009 
L 59.02392 194.027736 
L 59.277557 196.992827 
L 59.277557 196.498645 
L 59.277557 194.521918 
L 59.277557 196.004463 
L 59.531193 197.98119 
L 59.531193 199.463736 
L 59.78483 199.957918 
L 59.78483 201.934645 
L 60.038466 202.428827 
L 60.038466 203.911372 
L 60.038466 202.923009 
L 60.292102 204.899736 
L 60.292102 205.888099 
L 60.545739 207.864827 
L 60.545739 206.876463 
L 60.545739 206.382281 
L 60.799375 208.359009 
L 60.799375 209.347372 
L 60.799375 208.85319 
L 61.053011 209.841554 
L 61.053011 211.324099 
L 61.306648 211.818281 
L 61.306648 212.806645 
L 61.560284 213.300827 
L 61.560284 214.28919 
L 61.81392 215.277554 
L 61.81392 214.783372 
L 62.067557 216.760099 
L 62.067557 216.265918 
L 62.067557 215.771736 
L 62.321193 217.748463 
L 62.321193 218.242645 
L 62.57483 218.736827 
L 62.57483 219.231009 
L 62.828466 219.72519 
L 62.828466 220.219372 
L 63.082102 221.207736 
L 63.082102 220.713554 
L 63.335739 222.690281 
L 63.335739 222.196099 
L 63.335739 221.701918 
L 63.843011 224.667009 
L 63.843011 224.172827 
L 64.096648 225.16119 
L 64.350284 225.655372 
L 64.350284 226.149554 
L 64.60392 226.643736 
L 64.60392 227.137918 
L 64.857557 227.632099 
L 64.857557 228.126281 
L 65.36483 229.114645 
L 65.36483 229.608827 
L 65.872102 230.59719 
L 65.872102 231.091372 
L 66.633011 232.573918 
L 66.633011 233.068099 
L 67.901193 235.539009 
L 67.901193 236.03319 
L 69.930284 239.986645 
L 70.437557 240.480827 
L 71.198466 241.963372 
L 71.705739 242.457554 
L 72.213011 243.445918 
L 72.720284 243.940099 
L 72.97392 244.434281 
L 73.481193 244.928463 
L 73.73483 245.422645 
L 75.256648 246.90519 
L 75.510284 247.399372 
L 76.52483 248.387736 
L 77.285739 248.881918 
L 78.300284 249.870281 
L 82.10483 252.34119 
L 85.402102 253.823736 
L 88.192102 254.812099 
L 89.967557 255.306281 
L 92.757557 255.800463 
L 105.946648 255.800463 
L 112.287557 254.812099 
L 118.628466 253.329554 
L 125.476648 251.352827 
L 131.310284 249.376099 
L 147.543011 242.951736 
L 150.840284 241.46919 
L 153.123011 240.480827 
L 158.449375 238.009918 
L 160.732102 237.021554 
L 180.262102 227.632099 
L 182.54483 226.643736 
L 207.147557 214.783372 
L 209.430284 213.795009 
L 213.742102 211.818281 
L 216.02483 210.829918 
L 219.322102 209.347372 
L 225.409375 206.876463 
L 227.692102 205.888099 
L 235.55483 202.923009 
L 246.207557 199.463736 
L 254.32392 197.487009 
L 260.157557 196.498645 
L 265.737557 196.004463 
L 270.303011 196.004463 
L 275.122102 196.498645 
L 279.43392 197.487009 
L 282.22392 198.475372 
L 286.028466 200.452099 
L 288.311193 201.934645 
L 288.818466 202.428827 
L 289.579375 202.923009 
L 292.623011 205.888099 
L 292.876648 206.382281 
L 293.891193 207.370645 
L 294.14483 207.864827 
L 294.652102 208.359009 
L 295.159375 209.347372 
L 295.666648 209.841554 
L 296.427557 211.324099 
L 296.93483 211.818281 
L 299.471193 216.760099 
L 299.72483 217.748463 
L 299.72483 217.254281 
L 299.978466 218.242645 
L 300.485739 219.231009 
L 300.739375 220.219372 
L 300.739375 219.72519 
L 301.246648 221.701918 
L 301.246648 221.207736 
L 301.500284 222.196099 
L 301.75392 222.690281 
L 301.75392 223.184463 
L 302.261193 224.172827 
L 302.261193 224.667009 
L 302.51483 225.16119 
L 302.51483 225.655372 
L 303.022102 226.643736 
L 303.022102 227.137918 
L 303.275739 228.126281 
L 303.275739 227.632099 
L 303.529375 229.114645 
L 303.529375 228.620463 
L 303.783011 229.608827 
L 303.783011 230.103009 
L 304.036648 230.59719 
L 304.036648 231.091372 
L 304.290284 232.079736 
L 304.290284 232.573918 
L 304.290284 231.585554 
L 304.54392 233.562281 
L 304.54392 233.068099 
L 304.797557 234.056463 
L 304.797557 235.044827 
L 305.051193 235.539009 
L 305.051193 236.03319 
L 305.30483 237.515736 
L 305.30483 237.021554 
L 305.30483 236.527372 
L 305.558466 238.009918 
L 305.558466 238.998281 
L 305.558466 238.504099 
L 305.812102 240.480827 
L 305.812102 239.492463 
L 305.812102 239.986645 
L 306.319375 243.445918 
L 306.319375 243.940099 
L 306.573011 245.916827 
L 306.573011 244.928463 
L 306.573011 244.434281 
L 306.826648 246.90519 
L 306.826648 247.893554 
L 306.826648 247.399372 
L 307.080284 248.881918 
L 307.080284 249.870281 
L 307.080284 248.387736 
L 307.33392 252.34119 
L 307.587557 252.835372 
L 307.587557 254.812099 
L 307.841193 257.283009 
L 307.841193 256.788827 
L 307.841193 255.306281 
L 307.841193 256.294645 
L 308.09483 258.271372 
L 308.09483 260.742281 
L 308.348466 263.707372 
L 308.348466 261.236463 
L 308.348466 262.224827 
L 308.602102 264.695736 
L 308.602102 267.660827 
L 308.855739 272.602645 
L 308.855739 271.120099 
L 308.855739 268.155009 
L 308.855739 270.625918 
L 309.109375 277.544463 
L 309.109375 274.579372 
L 309.109375 273.096827 
L 309.109375 275.073554 
L 309.363011 279.027009 
L 309.363011 281.003736 
L 309.363011 281.003736 
" clip-path="url(#p319560198c)" style="fill: none; stroke: #1f77b4; stroke-opacity: 0.4; stroke-width: 3; stroke-linecap: square"/>
   </g>
   <g id="line2d_14">
    <path d="M 56.741193 259.259736 
L 67.39392 254.070827 
L 67.901193 253.576645 
L 71.452102 251.847009 
L 71.959375 251.352827 
L 74.495739 250.117372 
L 75.003011 249.62319 
L 77.032102 248.634827 
L 77.539375 248.140645 
L 79.061193 247.399372 
L 79.568466 246.90519 
L 81.090284 246.163918 
L 81.597557 245.669736 
L 82.612102 245.175554 
L 83.119375 244.681372 
L 84.13392 244.18719 
L 84.641193 243.693009 
L 85.655739 243.198827 
L 86.163011 242.704645 
L 87.177557 242.210463 
L 87.68483 241.716281 
L 88.192102 241.46919 
L 88.699375 240.975009 
L 89.71392 240.480827 
L 90.221193 239.986645 
L 90.728466 239.739554 
L 91.235739 239.245372 
L 91.743011 238.998281 
L 92.250284 238.504099 
L 92.757557 238.257009 
L 93.26483 237.762827 
L 93.772102 237.515736 
L 94.279375 237.021554 
L 94.786648 236.774463 
L 95.29392 236.280281 
L 95.801193 236.03319 
L 96.308466 235.539009 
L 96.815739 235.291918 
L 97.323011 234.797736 
L 97.830284 234.550645 
L 98.337557 234.056463 
L 98.84483 233.809372 
L 99.352102 233.31519 
L 99.859375 233.068099 
L 100.366648 232.573918 
L 100.87392 232.326827 
L 101.888466 231.338463 
L 102.395739 231.091372 
L 102.903011 230.59719 
L 103.410284 230.350099 
L 104.42483 229.361736 
L 104.932102 229.114645 
L 105.946648 228.126281 
L 106.45392 227.87919 
L 107.468466 226.890827 
L 107.975739 226.643736 
L 108.990284 225.655372 
L 109.497557 225.408281 
L 110.512102 224.419918 
L 111.019375 224.172827 
L 112.541193 222.690281 
L 113.048466 222.44319 
L 114.570284 220.960645 
L 115.077557 220.713554 
L 117.106648 218.736827 
L 117.61392 218.489736 
L 119.643011 216.513009 
L 120.150284 216.265918 
L 123.19392 213.300827 
L 123.701193 213.053736 
L 128.77392 208.111918 
L 129.281193 207.864827 
L 141.455739 196.004463 
L 141.963011 195.26319 
L 147.543011 189.82719 
L 148.050284 189.085918 
L 151.601193 185.626645 
L 152.108466 184.885372 
L 155.152102 181.920281 
L 155.659375 181.179009 
L 158.195739 178.708099 
L 158.703011 177.966827 
L 161.239375 175.495918 
L 161.746648 174.754645 
L 163.775739 172.777918 
L 164.283011 172.036645 
L 166.312102 170.059918 
L 166.819375 169.318645 
L 168.848466 167.341918 
L 169.355739 166.600645 
L 171.38483 164.623918 
L 171.892102 163.882645 
L 173.41392 162.400099 
L 173.921193 161.658827 
L 175.950284 159.682099 
L 176.457557 158.940827 
L 178.486648 156.964099 
L 178.99392 156.222827 
L 180.515739 154.740281 
L 181.023011 153.999009 
L 183.052102 152.022281 
L 183.559375 151.281009 
L 185.588466 149.304281 
L 186.095739 148.563009 
L 188.12483 146.586281 
L 188.632102 145.845009 
L 190.661193 143.868281 
L 191.168466 143.127009 
L 193.197557 141.150281 
L 193.70483 140.409009 
L 195.73392 138.432281 
L 196.241193 137.691009 
L 198.777557 135.220099 
L 199.28483 134.478827 
L 202.328466 131.513736 
L 202.835739 130.772463 
L 205.879375 127.807372 
L 206.386648 127.066099 
L 210.952102 122.618463 
L 211.459375 121.87719 
L 229.721193 104.086645 
L 230.228466 103.839554 
L 233.779375 100.380281 
L 234.286648 100.13319 
L 236.823011 97.662281 
L 237.330284 97.41519 
L 239.359375 95.438463 
L 239.866648 95.191372 
L 241.895739 93.214645 
L 242.403011 92.967554 
L 243.417557 91.97919 
L 243.92483 91.732099 
L 245.446648 90.249554 
L 245.95392 90.002463 
L 246.968466 89.014099 
L 247.475739 88.767009 
L 248.490284 87.778645 
L 248.997557 87.531554 
L 250.012102 86.54319 
L 250.519375 86.296099 
L 251.53392 85.307736 
L 252.041193 85.060645 
L 253.055739 84.072281 
L 253.563011 83.82519 
L 254.070284 83.331009 
L 254.577557 83.083918 
L 255.08483 82.589736 
L 255.592102 82.342645 
L 256.606648 81.354281 
L 257.11392 81.10719 
L 257.621193 80.613009 
L 258.128466 80.365918 
L 258.635739 79.871736 
L 259.143011 79.624645 
L 259.650284 79.130463 
L 260.157557 78.883372 
L 260.66483 78.38919 
L 261.172102 78.142099 
L 261.679375 77.647918 
L 262.186648 77.400827 
L 262.69392 76.906645 
L 263.201193 76.659554 
L 263.708466 76.165372 
L 264.215739 75.918281 
L 264.723011 75.424099 
L 265.737557 74.929918 
L 266.24483 74.435736 
L 266.752102 74.188645 
L 267.259375 73.694463 
L 268.27392 73.200281 
L 268.781193 72.706099 
L 269.288466 72.459009 
L 269.795739 71.964827 
L 270.810284 71.470645 
L 271.317557 70.976463 
L 272.332102 70.482281 
L 272.839375 69.988099 
L 273.85392 69.493918 
L 274.361193 68.999736 
L 275.883011 68.258463 
L 276.390284 67.764281 
L 277.912102 67.023009 
L 278.419375 66.528827 
L 280.448466 65.540463 
L 280.955739 65.046281 
L 282.98483 64.057918 
L 283.492102 63.563736 
L 287.043011 61.834099 
L 287.550284 61.339918 
L 301.246648 54.668463 
L 301.75392 54.668463 
L 305.30483 52.938827 
L 305.812102 52.938827 
L 307.841193 51.950463 
L 308.348466 51.950463 
L 310.377557 50.962099 
L 310.377557 50.962099 
" clip-path="url(#p319560198c)" style="fill: none; stroke: #ff7f0e; stroke-opacity: 0.4; stroke-width: 3; stroke-linecap: square"/>
   </g>
   <g id="line2d_15">
    <path d="M 170.877557 256.294645 
L 200.346002 157.786864 
L 129.324314 131.592377 
L 62.4746 212.888703 
L 61.618627 257.948018 
L 72.524378 256.843175 
L 78.081708 250.916593 
L 78.702759 247.764837 
L 77.585318 247.507559 
L 76.798449 248.224522 
L 76.660341 248.684855 
L 76.787479 248.750998 
L 76.892604 248.669295 
L 76.917595 248.607435 
L 76.904197 248.594524 
L 76.890388 248.603407 
L 76.886266 248.611617 
L 76.887566 248.613831 
L 76.889343 248.612928 
L 76.889983 248.611862 
L 76.889876 248.611509 
L 76.889652 248.611591 
L 76.889557 248.611726 
L 76.889562 248.61178 
L 76.88959 248.611774 
L 76.889603 248.611757 
L 76.889604 248.611749 
L 76.889601 248.61175 
L 76.889599 248.611752 
L 76.889598 248.611753 
L 76.889599 248.611753 
L 76.889599 248.611753 
L 76.889599 248.611752 
L 76.889599 248.611752 
L 76.889599 248.611752 
L 76.889599 248.611752 
L 76.889599 248.611752 
L 76.889599 248.611752 
L 76.889599 248.611752 
L 76.889599 248.611752 
L 76.889599 248.611752 
L 76.889599 248.611752 
L 76.889599 248.611752 
L 76.889599 248.611752 
L 76.889599 248.611752 
L 76.889599 248.611752 
L 76.889599 248.611752 
L 76.889599 248.611752 
L 76.889599 248.611752 
L 76.889599 248.611752 
" clip-path="url(#p319560198c)" style="fill: none; stroke: #000000; stroke-width: 1.5; stroke-linecap: square"/>
    <defs>
     <path id="m22c6b37992" d="M 0 1.5 
C 0.397805 1.5 0.77937 1.341951 1.06066 1.06066 
C 1.341951 0.77937 1.5 0.397805 1.5 0 
C 1.5 -0.397805 1.341951 -0.77937 1.06066 -1.06066 
C 0.77937 -1.341951 0.397805 -1.5 0 -1.5 
C -0.397805 -1.5 -0.77937 -1.341951 -1.06066 -1.06066 
C -1.341951 -0.77937 -1.5 -0.397805 -1.5 0 
C -1.5 0.397805 -1.341951 0.77937 -1.06066 1.06066 
C -0.77937 1.341951 -0.397805 1.5 0 1.5 
z
" style="stroke: #000000"/>
    </defs>
    <g clip-path="url(#p319560198c)">
     <use xlink:href="#m22c6b37992" x="170.877557" y="256.294645" style="stroke: #000000"/>
     <use xlink:href="#m22c6b37992" x="200.346002" y="157.786864" style="stroke: #000000"/>
     <use xlink:href="#m22c6b37992" x="129.324314" y="131.592377" style="stroke: #000000"/>
     <use xlink:href="#m22c6b37992" x="62.4746" y="212.888703" style="stroke: #000000"/>
     <use xlink:href="#m22c6b37992" x="61.618627" y="257.948018" style="stroke: #000000"/>
     <use xlink:href="#m22c6b37992" x="72.524378" y="256.843175" style="stroke: #000000"/>
     <use xlink:href="#m22c6b37992" x="78.081708" y="250.916593" style="stroke: #000000"/>
     <use xlink:href="#m22c6b37992" x="78.702759" y="247.764837" style="stroke: #000000"/>
     <use xlink:href="#m22c6b37992" x="77.585318" y="247.507559" style="stroke: #000000"/>
     <use xlink:href="#m22c6b37992" x="76.798449" y="248.224522" style="stroke: #000000"/>
     <use xlink:href="#m22c6b37992" x="76.660341" y="248.684855" style="stroke: #000000"/>
     <use xlink:href="#m22c6b37992" x="76.787479" y="248.750998" style="stroke: #000000"/>
     <use xlink:href="#m22c6b37992" x="76.892604" y="248.669295" style="stroke: #000000"/>
     <use xlink:href="#m22c6b37992" x="76.917595" y="248.607435" style="stroke: #000000"/>
     <use xlink:href="#m22c6b37992" x="76.904197" y="248.594524" style="stroke: #000000"/>
     <use xlink:href="#m22c6b37992" x="76.890388" y="248.603407" style="stroke: #000000"/>
     <use xlink:href="#m22c6b37992" x="76.886266" y="248.611617" style="stroke: #000000"/>
     <use xlink:href="#m22c6b37992" x="76.887566" y="248.613831" style="stroke: #000000"/>
     <use xlink:href="#m22c6b37992" x="76.889343" y="248.612928" style="stroke: #000000"/>
     <use xlink:href="#m22c6b37992" x="76.889983" y="248.611862" style="stroke: #000000"/>
     <use xlink:href="#m22c6b37992" x="76.889876" y="248.611509" style="stroke: #000000"/>
     <use xlink:href="#m22c6b37992" x="76.889652" y="248.611591" style="stroke: #000000"/>
     <use xlink:href="#m22c6b37992" x="76.889557" y="248.611726" style="stroke: #000000"/>
     <use xlink:href="#m22c6b37992" x="76.889562" y="248.61178" style="stroke: #000000"/>
     <use xlink:href="#m22c6b37992" x="76.88959" y="248.611774" style="stroke: #000000"/>
     <use xlink:href="#m22c6b37992" x="76.889603" y="248.611757" style="stroke: #000000"/>
     <use xlink:href="#m22c6b37992" x="76.889604" y="248.611749" style="stroke: #000000"/>
     <use xlink:href="#m22c6b37992" x="76.889601" y="248.61175" style="stroke: #000000"/>
     <use xlink:href="#m22c6b37992" x="76.889599" y="248.611752" style="stroke: #000000"/>
     <use xlink:href="#m22c6b37992" x="76.889598" y="248.611753" style="stroke: #000000"/>
     <use xlink:href="#m22c6b37992" x="76.889599" y="248.611753" style="stroke: #000000"/>
     <use xlink:href="#m22c6b37992" x="76.889599" y="248.611753" style="stroke: #000000"/>
     <use xlink:href="#m22c6b37992" x="76.889599" y="248.611752" style="stroke: #000000"/>
     <use xlink:href="#m22c6b37992" x="76.889599" y="248.611752" style="stroke: #000000"/>
     <use xlink:href="#m22c6b37992" x="76.889599" y="248.611752" style="stroke: #000000"/>
     <use xlink:href="#m22c6b37992" x="76.889599" y="248.611752" style="stroke: #000000"/>
     <use xlink:href="#m22c6b37992" x="76.889599" y="248.611752" style="stroke: #000000"/>
     <use xlink:href="#m22c6b37992" x="76.889599" y="248.611752" style="stroke: #000000"/>
     <use xlink:href="#m22c6b37992" x="76.889599" y="248.611752" style="stroke: #000000"/>
     <use xlink:href="#m22c6b37992" x="76.889599" y="248.611752" style="stroke: #000000"/>
     <use xlink:href="#m22c6b37992" x="76.889599" y="248.611752" style="stroke: #000000"/>
     <use xlink:href="#m22c6b37992" x="76.889599" y="248.611752" style="stroke: #000000"/>
     <use xlink:href="#m22c6b37992" x="76.889599" y="248.611752" style="stroke: #000000"/>
     <use xlink:href="#m22c6b37992" x="76.889599" y="248.611752" style="stroke: #000000"/>
     <use xlink:href="#m22c6b37992" x="76.889599" y="248.611752" style="stroke: #000000"/>
     <use xlink:href="#m22c6b37992" x="76.889599" y="248.611752" style="stroke: #000000"/>
     <use xlink:href="#m22c6b37992" x="76.889599" y="248.611752" style="stroke: #000000"/>
     <use xlink:href="#m22c6b37992" x="76.889599" y="248.611752" style="stroke: #000000"/>
     <use xlink:href="#m22c6b37992" x="76.889599" y="248.611752" style="stroke: #000000"/>
     <use xlink:href="#m22c6b37992" x="76.889599" y="248.611752" style="stroke: #000000"/>
    </g>
   </g>
   <g id="patch_5">
    <path d="M 44.059375 293.358281 
L 44.059375 21.558281 
" style="fill: none; stroke: #000000; stroke-width: 0.8; stroke-linejoin: miter; stroke-linecap: square"/>
   </g>
   <g id="patch_6">
    <path d="M 323.059375 293.358281 
L 323.059375 21.558281 
" style="fill: none; stroke: #000000; stroke-width: 0.8; stroke-linejoin: miter; stroke-linecap: square"/>
   </g>
   <g id="patch_7">
    <path d="M 44.059375 293.358281 
L 323.059375 293.358281 
" style="fill: none; stroke: #000000; stroke-width: 0.8; stroke-linejoin: miter; stroke-linecap: square"/>
   </g>
   <g id="patch_8">
    <path d="M 44.059375 21.558281 
L 323.059375 21.558281 
" style="fill: none; stroke: #000000; stroke-width: 0.8; stroke-linejoin: miter; stroke-linecap: square"/>
   </g>
   <g id="text_15">
    <!-- Perturbation -->
    <g style="fill: #ff0000" transform="translate(89.065859 267.128823)rotate(-354)scale(0.1 -0.1)">
     <defs>
      <path id="DejaVuSans-50" d="M 1259 4147 
L 1259 2394 
L 2053 2394 
Q 2494 2394 2734 2622 
Q 2975 2850 2975 3272 
Q 2975 3691 2734 3919 
Q 2494 4147 2053 4147 
L 1259 4147 
z
M 628 4666 
L 2053 4666 
Q 2838 4666 3239 4311 
Q 3641 3956 3641 3272 
Q 3641 2581 3239 2228 
Q 2838 1875 2053 1875 
L 1259 1875 
L 1259 0 
L 628 0 
L 628 4666 
z
" transform="scale(0.015625)"/>
      <path id="DejaVuSans-75" d="M 544 1381 
L 544 3500 
L 1119 3500 
L 1119 1403 
Q 1119 906 1312 657 
Q 1506 409 1894 409 
Q 2359 409 2629 706 
Q 2900 1003 2900 1516 
L 2900 3500 
L 3475 3500 
L 3475 0 
L 2900 0 
L 2900 538 
Q 2691 219 2414 64 
Q 2138 -91 1772 -91 
Q 1169 -91 856 284 
Q 544 659 544 1381 
z
M 1991 3584 
L 1991 3584 
z
" transform="scale(0.015625)"/>
     </defs>
     <use xlink:href="#DejaVuSans-50"/>
     <use xlink:href="#DejaVuSans-65" x="56.677734"/>
     <use xlink:href="#DejaVuSans-72" x="118.201172"/>
     <use xlink:href="#DejaVuSans-74" x="159.314453"/>
     <use xlink:href="#DejaVuSans-75" x="198.523438"/>
     <use xlink:href="#DejaVuSans-72" x="261.902344"/>
     <use xlink:href="#DejaVuSans-62" x="303.015625"/>
     <use xlink:href="#DejaVuSans-61" x="366.492188"/>
     <use xlink:href="#DejaVuSans-74" x="427.771484"/>
     <use xlink:href="#DejaVuSans-69" x="466.980469"/>
     <use xlink:href="#DejaVuSans-6f" x="494.763672"/>
     <use xlink:href="#DejaVuSans-6e" x="555.945312"/>
    </g>
   </g>
   <g id="text_16">
    <!-- Stabilising dynamics -->
    <g transform="translate(190.664245 257.282998)rotate(-75)scale(0.1 -0.1)">
     <defs>
      <path id="DejaVuSans-53" d="M 3425 4513 
L 3425 3897 
Q 3066 4069 2747 4153 
Q 2428 4238 2131 4238 
Q 1616 4238 1336 4038 
Q 1056 3838 1056 3469 
Q 1056 3159 1242 3001 
Q 1428 2844 1947 2747 
L 2328 2669 
Q 3034 2534 3370 2195 
Q 3706 1856 3706 1288 
Q 3706 609 3251 259 
Q 2797 -91 1919 -91 
Q 1588 -91 1214 -16 
Q 841 59 441 206 
L 441 856 
Q 825 641 1194 531 
Q 1563 422 1919 422 
Q 2459 422 2753 634 
Q 3047 847 3047 1241 
Q 3047 1584 2836 1778 
Q 2625 1972 2144 2069 
L 1759 2144 
Q 1053 2284 737 2584 
Q 422 2884 422 3419 
Q 422 4038 858 4394 
Q 1294 4750 2059 4750 
Q 2388 4750 2728 4690 
Q 3069 4631 3425 4513 
z
" transform="scale(0.015625)"/>
      <path id="DejaVuSans-6c" d="M 603 4863 
L 1178 4863 
L 1178 0 
L 603 0 
L 603 4863 
z
" transform="scale(0.015625)"/>
      <path id="DejaVuSans-73" d="M 2834 3397 
L 2834 2853 
Q 2591 2978 2328 3040 
Q 2066 3103 1784 3103 
Q 1356 3103 1142 2972 
Q 928 2841 928 2578 
Q 928 2378 1081 2264 
Q 1234 2150 1697 2047 
L 1894 2003 
Q 2506 1872 2764 1633 
Q 3022 1394 3022 966 
Q 3022 478 2636 193 
Q 2250 -91 1575 -91 
Q 1294 -91 989 -36 
Q 684 19 347 128 
L 347 722 
Q 666 556 975 473 
Q 1284 391 1588 391 
Q 1994 391 2212 530 
Q 2431 669 2431 922 
Q 2431 1156 2273 1281 
Q 2116 1406 1581 1522 
L 1381 1569 
Q 847 1681 609 1914 
Q 372 2147 372 2553 
Q 372 3047 722 3315 
Q 1072 3584 1716 3584 
Q 2034 3584 2315 3537 
Q 2597 3491 2834 3397 
z
" transform="scale(0.015625)"/>
      <path id="DejaVuSans-67" d="M 2906 1791 
Q 2906 2416 2648 2759 
Q 2391 3103 1925 3103 
Q 1463 3103 1205 2759 
Q 947 2416 947 1791 
Q 947 1169 1205 825 
Q 1463 481 1925 481 
Q 2391 481 2648 825 
Q 2906 1169 2906 1791 
z
M 3481 434 
Q 3481 -459 3084 -895 
Q 2688 -1331 1869 -1331 
Q 1566 -1331 1297 -1286 
Q 1028 -1241 775 -1147 
L 775 -588 
Q 1028 -725 1275 -790 
Q 1522 -856 1778 -856 
Q 2344 -856 2625 -561 
Q 2906 -266 2906 331 
L 2906 616 
Q 2728 306 2450 153 
Q 2172 0 1784 0 
Q 1141 0 747 490 
Q 353 981 353 1791 
Q 353 2603 747 3093 
Q 1141 3584 1784 3584 
Q 2172 3584 2450 3431 
Q 2728 3278 2906 2969 
L 2906 3500 
L 3481 3500 
L 3481 434 
z
" transform="scale(0.015625)"/>
      <path id="DejaVuSans-64" d="M 2906 2969 
L 2906 4863 
L 3481 4863 
L 3481 0 
L 2906 0 
L 2906 525 
Q 2725 213 2448 61 
Q 2172 -91 1784 -91 
Q 1150 -91 751 415 
Q 353 922 353 1747 
Q 353 2572 751 3078 
Q 1150 3584 1784 3584 
Q 2172 3584 2448 3432 
Q 2725 3281 2906 2969 
z
M 947 1747 
Q 947 1113 1208 752 
Q 1469 391 1925 391 
Q 2381 391 2643 752 
Q 2906 1113 2906 1747 
Q 2906 2381 2643 2742 
Q 2381 3103 1925 3103 
Q 1469 3103 1208 2742 
Q 947 2381 947 1747 
z
" transform="scale(0.015625)"/>
     </defs>
     <use xlink:href="#DejaVuSans-53"/>
     <use xlink:href="#DejaVuSans-74" x="63.476562"/>
     <use xlink:href="#DejaVuSans-61" x="102.685547"/>
     <use xlink:href="#DejaVuSans-62" x="163.964844"/>
     <use xlink:href="#DejaVuSans-69" x="227.441406"/>
     <use xlink:href="#DejaVuSans-6c" x="255.224609"/>
     <use xlink:href="#DejaVuSans-69" x="283.007812"/>
     <use xlink:href="#DejaVuSans-73" x="310.791016"/>
     <use xlink:href="#DejaVuSans-69" x="362.890625"/>
     <use xlink:href="#DejaVuSans-6e" x="390.673828"/>
     <use xlink:href="#DejaVuSans-67" x="454.052734"/>
     <use xlink:href="#DejaVuSans-20" x="517.529297"/>
     <use xlink:href="#DejaVuSans-64" x="549.316406"/>
     <use xlink:href="#DejaVuSans-79" x="612.792969"/>
     <use xlink:href="#DejaVuSans-6e" x="671.972656"/>
     <use xlink:href="#DejaVuSans-61" x="735.351562"/>
     <use xlink:href="#DejaVuSans-6d" x="796.630859"/>
     <use xlink:href="#DejaVuSans-69" x="894.042969"/>
     <use xlink:href="#DejaVuSans-63" x="921.826172"/>
     <use xlink:href="#DejaVuSans-73" x="976.806641"/>
    </g>
   </g>
   <g id="text_17">
    <!-- With inhibitory feedback -->
    <g transform="translate(106.748438 15.558281)scale(0.11 -0.11)">
     <defs>
      <path id="DejaVuSans-Bold-57" d="M 191 4666 
L 1344 4666 
L 2150 1275 
L 2950 4666 
L 4109 4666 
L 4909 1275 
L 5716 4666 
L 6859 4666 
L 5759 0 
L 4372 0 
L 3525 3547 
L 2688 0 
L 1300 0 
L 191 4666 
z
" transform="scale(0.015625)"/>
      <path id="DejaVuSans-Bold-69" d="M 538 3500 
L 1656 3500 
L 1656 0 
L 538 0 
L 538 3500 
z
M 538 4863 
L 1656 4863 
L 1656 3950 
L 538 3950 
L 538 4863 
z
" transform="scale(0.015625)"/>
      <path id="DejaVuSans-Bold-74" d="M 1759 4494 
L 1759 3500 
L 2913 3500 
L 2913 2700 
L 1759 2700 
L 1759 1216 
Q 1759 972 1856 886 
Q 1953 800 2241 800 
L 2816 800 
L 2816 0 
L 1856 0 
Q 1194 0 917 276 
Q 641 553 641 1216 
L 641 2700 
L 84 2700 
L 84 3500 
L 641 3500 
L 641 4494 
L 1759 4494 
z
" transform="scale(0.015625)"/>
      <path id="DejaVuSans-Bold-68" d="M 4056 2131 
L 4056 0 
L 2931 0 
L 2931 347 
L 2931 1625 
Q 2931 2084 2911 2256 
Q 2891 2428 2841 2509 
Q 2775 2619 2662 2680 
Q 2550 2741 2406 2741 
Q 2056 2741 1856 2470 
Q 1656 2200 1656 1722 
L 1656 0 
L 538 0 
L 538 4863 
L 1656 4863 
L 1656 2988 
Q 1909 3294 2193 3439 
Q 2478 3584 2822 3584 
Q 3428 3584 3742 3212 
Q 4056 2841 4056 2131 
z
" transform="scale(0.015625)"/>
      <path id="DejaVuSans-Bold-20" transform="scale(0.015625)"/>
      <path id="DejaVuSans-Bold-6e" d="M 4056 2131 
L 4056 0 
L 2931 0 
L 2931 347 
L 2931 1631 
Q 2931 2084 2911 2256 
Q 2891 2428 2841 2509 
Q 2775 2619 2662 2680 
Q 2550 2741 2406 2741 
Q 2056 2741 1856 2470 
Q 1656 2200 1656 1722 
L 1656 0 
L 538 0 
L 538 3500 
L 1656 3500 
L 1656 2988 
Q 1909 3294 2193 3439 
Q 2478 3584 2822 3584 
Q 3428 3584 3742 3212 
Q 4056 2841 4056 2131 
z
" transform="scale(0.015625)"/>
      <path id="DejaVuSans-Bold-62" d="M 2400 722 
Q 2759 722 2948 984 
Q 3138 1247 3138 1747 
Q 3138 2247 2948 2509 
Q 2759 2772 2400 2772 
Q 2041 2772 1848 2508 
Q 1656 2244 1656 1747 
Q 1656 1250 1848 986 
Q 2041 722 2400 722 
z
M 1656 2988 
Q 1888 3294 2169 3439 
Q 2450 3584 2816 3584 
Q 3463 3584 3878 3070 
Q 4294 2556 4294 1747 
Q 4294 938 3878 423 
Q 3463 -91 2816 -91 
Q 2450 -91 2169 54 
Q 1888 200 1656 506 
L 1656 0 
L 538 0 
L 538 4863 
L 1656 4863 
L 1656 2988 
z
" transform="scale(0.015625)"/>
      <path id="DejaVuSans-Bold-6f" d="M 2203 2784 
Q 1831 2784 1636 2517 
Q 1441 2250 1441 1747 
Q 1441 1244 1636 976 
Q 1831 709 2203 709 
Q 2569 709 2762 976 
Q 2956 1244 2956 1747 
Q 2956 2250 2762 2517 
Q 2569 2784 2203 2784 
z
M 2203 3584 
Q 3106 3584 3614 3096 
Q 4122 2609 4122 1747 
Q 4122 884 3614 396 
Q 3106 -91 2203 -91 
Q 1297 -91 786 396 
Q 275 884 275 1747 
Q 275 2609 786 3096 
Q 1297 3584 2203 3584 
z
" transform="scale(0.015625)"/>
      <path id="DejaVuSans-Bold-72" d="M 3138 2547 
Q 2991 2616 2845 2648 
Q 2700 2681 2553 2681 
Q 2122 2681 1889 2404 
Q 1656 2128 1656 1613 
L 1656 0 
L 538 0 
L 538 3500 
L 1656 3500 
L 1656 2925 
Q 1872 3269 2151 3426 
Q 2431 3584 2822 3584 
Q 2878 3584 2943 3579 
Q 3009 3575 3134 3559 
L 3138 2547 
z
" transform="scale(0.015625)"/>
      <path id="DejaVuSans-Bold-79" d="M 78 3500 
L 1197 3500 
L 2138 1125 
L 2938 3500 
L 4056 3500 
L 2584 -331 
Q 2363 -916 2067 -1148 
Q 1772 -1381 1288 -1381 
L 641 -1381 
L 641 -647 
L 991 -647 
Q 1275 -647 1404 -556 
Q 1534 -466 1606 -231 
L 1638 -134 
L 78 3500 
z
" transform="scale(0.015625)"/>
      <path id="DejaVuSans-Bold-66" d="M 2841 4863 
L 2841 4128 
L 2222 4128 
Q 1984 4128 1890 4042 
Q 1797 3956 1797 3744 
L 1797 3500 
L 2753 3500 
L 2753 2700 
L 1797 2700 
L 1797 0 
L 678 0 
L 678 2700 
L 122 2700 
L 122 3500 
L 678 3500 
L 678 3744 
Q 678 4316 997 4589 
Q 1316 4863 1984 4863 
L 2841 4863 
z
" transform="scale(0.015625)"/>
      <path id="DejaVuSans-Bold-65" d="M 4031 1759 
L 4031 1441 
L 1416 1441 
Q 1456 1047 1700 850 
Q 1944 653 2381 653 
Q 2734 653 3104 758 
Q 3475 863 3866 1075 
L 3866 213 
Q 3469 63 3072 -14 
Q 2675 -91 2278 -91 
Q 1328 -91 801 392 
Q 275 875 275 1747 
Q 275 2603 792 3093 
Q 1309 3584 2216 3584 
Q 3041 3584 3536 3087 
Q 4031 2591 4031 1759 
z
M 2881 2131 
Q 2881 2450 2695 2645 
Q 2509 2841 2209 2841 
Q 1884 2841 1681 2658 
Q 1478 2475 1428 2131 
L 2881 2131 
z
" transform="scale(0.015625)"/>
      <path id="DejaVuSans-Bold-64" d="M 2919 2988 
L 2919 4863 
L 4044 4863 
L 4044 0 
L 2919 0 
L 2919 506 
Q 2688 197 2409 53 
Q 2131 -91 1766 -91 
Q 1119 -91 703 423 
Q 288 938 288 1747 
Q 288 2556 703 3070 
Q 1119 3584 1766 3584 
Q 2128 3584 2408 3439 
Q 2688 3294 2919 2988 
z
M 2181 722 
Q 2541 722 2730 984 
Q 2919 1247 2919 1747 
Q 2919 2247 2730 2509 
Q 2541 2772 2181 2772 
Q 1825 2772 1636 2509 
Q 1447 2247 1447 1747 
Q 1447 1247 1636 984 
Q 1825 722 2181 722 
z
" transform="scale(0.015625)"/>
      <path id="DejaVuSans-Bold-61" d="M 2106 1575 
Q 1756 1575 1579 1456 
Q 1403 1338 1403 1106 
Q 1403 894 1545 773 
Q 1688 653 1941 653 
Q 2256 653 2472 879 
Q 2688 1106 2688 1447 
L 2688 1575 
L 2106 1575 
z
M 3816 1997 
L 3816 0 
L 2688 0 
L 2688 519 
Q 2463 200 2181 54 
Q 1900 -91 1497 -91 
Q 953 -91 614 226 
Q 275 544 275 1050 
Q 275 1666 698 1953 
Q 1122 2241 2028 2241 
L 2688 2241 
L 2688 2328 
Q 2688 2594 2478 2717 
Q 2269 2841 1825 2841 
Q 1466 2841 1156 2769 
Q 847 2697 581 2553 
L 581 3406 
Q 941 3494 1303 3539 
Q 1666 3584 2028 3584 
Q 2975 3584 3395 3211 
Q 3816 2838 3816 1997 
z
" transform="scale(0.015625)"/>
      <path id="DejaVuSans-Bold-63" d="M 3366 3391 
L 3366 2478 
Q 3138 2634 2908 2709 
Q 2678 2784 2431 2784 
Q 1963 2784 1702 2511 
Q 1441 2238 1441 1747 
Q 1441 1256 1702 982 
Q 1963 709 2431 709 
Q 2694 709 2930 787 
Q 3166 866 3366 1019 
L 3366 103 
Q 3103 6 2833 -42 
Q 2563 -91 2291 -91 
Q 1344 -91 809 395 
Q 275 881 275 1747 
Q 275 2613 809 3098 
Q 1344 3584 2291 3584 
Q 2566 3584 2833 3536 
Q 3100 3488 3366 3391 
z
" transform="scale(0.015625)"/>
      <path id="DejaVuSans-Bold-6b" d="M 538 4863 
L 1656 4863 
L 1656 2216 
L 2944 3500 
L 4244 3500 
L 2534 1894 
L 4378 0 
L 3022 0 
L 1656 1459 
L 1656 0 
L 538 0 
L 538 4863 
z
" transform="scale(0.015625)"/>
     </defs>
     <use xlink:href="#DejaVuSans-Bold-57"/>
     <use xlink:href="#DejaVuSans-Bold-69" x="110.302734"/>
     <use xlink:href="#DejaVuSans-Bold-74" x="144.580078"/>
     <use xlink:href="#DejaVuSans-Bold-68" x="192.382812"/>
     <use xlink:href="#DejaVuSans-Bold-20" x="263.574219"/>
     <use xlink:href="#DejaVuSans-Bold-69" x="298.388672"/>
     <use xlink:href="#DejaVuSans-Bold-6e" x="332.666016"/>
     <use xlink:href="#DejaVuSans-Bold-68" x="403.857422"/>
     <use xlink:href="#DejaVuSans-Bold-69" x="475.048828"/>
     <use xlink:href="#DejaVuSans-Bold-62" x="509.326172"/>
     <use xlink:href="#DejaVuSans-Bold-69" x="580.908203"/>
     <use xlink:href="#DejaVuSans-Bold-74" x="615.185547"/>
     <use xlink:href="#DejaVuSans-Bold-6f" x="662.988281"/>
     <use xlink:href="#DejaVuSans-Bold-72" x="731.689453"/>
     <use xlink:href="#DejaVuSans-Bold-79" x="781.005859"/>
     <use xlink:href="#DejaVuSans-Bold-20" x="846.191406"/>
     <use xlink:href="#DejaVuSans-Bold-66" x="881.005859"/>
     <use xlink:href="#DejaVuSans-Bold-65" x="924.511719"/>
     <use xlink:href="#DejaVuSans-Bold-65" x="992.333984"/>
     <use xlink:href="#DejaVuSans-Bold-64" x="1060.15625"/>
     <use xlink:href="#DejaVuSans-Bold-62" x="1131.738281"/>
     <use xlink:href="#DejaVuSans-Bold-61" x="1203.320312"/>
     <use xlink:href="#DejaVuSans-Bold-63" x="1270.800781"/>
     <use xlink:href="#DejaVuSans-Bold-6b" x="1330.078125"/>
    </g>
   </g>
   <g id="legend_1">
    <g id="line2d_16">
     <path d="M 80.959375 34.656719 
L 90.959375 34.656719 
L 100.959375 34.656719 
" style="fill: none; stroke: #1f77b4; stroke-opacity: 0.4; stroke-width: 3; stroke-linecap: square"/>
    </g>
    <g id="text_18">
     <!-- m_E nullcline -->
     <g transform="translate(108.959375 38.156719)scale(0.1 -0.1)">
      <defs>
       <path id="DejaVuSans-45" d="M 628 4666 
L 3578 4666 
L 3578 4134 
L 1259 4134 
L 1259 2753 
L 3481 2753 
L 3481 2222 
L 1259 2222 
L 1259 531 
L 3634 531 
L 3634 0 
L 628 0 
L 628 4666 
z
" transform="scale(0.015625)"/>
      </defs>
      <use xlink:href="#DejaVuSans-6d"/>
      <use xlink:href="#DejaVuSans-5f" x="97.412109"/>
      <use xlink:href="#DejaVuSans-45" x="147.412109"/>
      <use xlink:href="#DejaVuSans-20" x="210.595703"/>
      <use xlink:href="#DejaVuSans-6e" x="242.382812"/>
      <use xlink:href="#DejaVuSans-75" x="305.761719"/>
      <use xlink:href="#DejaVuSans-6c" x="369.140625"/>
      <use xlink:href="#DejaVuSans-6c" x="396.923828"/>
      <use xlink:href="#DejaVuSans-63" x="424.707031"/>
      <use xlink:href="#DejaVuSans-6c" x="479.6875"/>
      <use xlink:href="#DejaVuSans-69" x="507.470703"/>
      <use xlink:href="#DejaVuSans-6e" x="535.253906"/>
      <use xlink:href="#DejaVuSans-65" x="598.632812"/>
     </g>
    </g>
    <g id="line2d_17">
     <path d="M 80.959375 49.612969 
L 90.959375 49.612969 
L 100.959375 49.612969 
" style="fill: none; stroke: #ff7f0e; stroke-opacity: 0.4; stroke-width: 3; stroke-linecap: square"/>
    </g>
    <g id="text_19">
     <!-- m_I nullcline -->
     <g transform="translate(108.959375 53.112969)scale(0.1 -0.1)">
      <defs>
       <path id="DejaVuSans-49" d="M 628 4666 
L 1259 4666 
L 1259 0 
L 628 0 
L 628 4666 
z
" transform="scale(0.015625)"/>
      </defs>
      <use xlink:href="#DejaVuSans-6d"/>
      <use xlink:href="#DejaVuSans-5f" x="97.412109"/>
      <use xlink:href="#DejaVuSans-49" x="147.412109"/>
      <use xlink:href="#DejaVuSans-20" x="176.904297"/>
      <use xlink:href="#DejaVuSans-6e" x="208.691406"/>
      <use xlink:href="#DejaVuSans-75" x="272.070312"/>
      <use xlink:href="#DejaVuSans-6c" x="335.449219"/>
      <use xlink:href="#DejaVuSans-6c" x="363.232422"/>
      <use xlink:href="#DejaVuSans-63" x="391.015625"/>
      <use xlink:href="#DejaVuSans-6c" x="445.996094"/>
      <use xlink:href="#DejaVuSans-69" x="473.779297"/>
      <use xlink:href="#DejaVuSans-6e" x="501.5625"/>
      <use xlink:href="#DejaVuSans-65" x="564.941406"/>
     </g>
    </g>
   </g>
  </g>
 </g>
 <defs>
  <clipPath id="p319560198c">
   <rect x="44.059375" y="21.558281" width="279" height="271.8"/>
  </clipPath>
 </defs>
</svg>
