<?xml version="1.0" encoding="utf-8" standalone="no"?>
<!DOCTYPE svg PUBLIC "-//W3C//DTD SVG 1.1//EN"
  "http://www.w3.org/Graphics/SVG/1.1/DTD/svg11.dtd">
<svg xmlns:xlink="http://www.w3.org/1999/xlink" width="330.259375pt" height="343.596187pt" viewBox="0 0 330.259375 343.596187" xmlns="http://www.w3.org/2000/svg" version="1.1">
 <metadata>
  <rdf:RDF xmlns:dc="http://purl.org/dc/elements/1.1/" xmlns:cc="http://creativecommons.org/ns#" xmlns:rdf="http://www.w3.org/1999/02/22-rdf-syntax-ns#">
   <cc:Work>
    <dc:type rdf:resource="http://purl.org/dc/dcmitype/StillImage"/>
    <dc:date>2023-10-03T21:24:21.441622</dc:date>
    <dc:format>image/svg+xml</dc:format>
    <dc:creator>
     <cc:Agent>
      <dc:title>Matplotlib v3.5.0, https://matplotlib.org/</dc:title>
     </cc:Agent>
    </dc:creator>
   </cc:Work>
  </rdf:RDF>
 </metadata>
 <defs>
  <style type="text/css">*{stroke-linejoin: round; stroke-linecap: butt}</style>
 </defs>
 <g id="figure_1">
  <g id="patch_1">
   <path d="M 0 343.596187 
L 330.259375 343.596187 
L 330.259375 0 
L 0 0 
L 0 343.596187 
z
" style="fill: none"/>
  </g>
  <g id="axes_1">
   <g id="patch_2">
    <path d="M 44.059375 305.761812 
L 323.059375 305.761812 
L 323.059375 33.961812 
L 44.059375 33.961812 
z
" style="fill: #ffffff"/>
   </g>
   <g id="patch_3">
    <path d="M 155.279774 219.279337 
L 154.63744 232.938987 
L 150.613573 231.429686 
L 145.632269 244.033476 
L 145.395571 243.944694 
L 150.376875 231.340904 
L 146.353009 229.831603 
z
" clip-path="url(#p97c9c94a8a)"/>
   </g>
   <g id="patch_4">
    <path d="M 141.075284 246.459994 
L 127.701269 242.30958 
L 130.24205 238.915776 
L 115.981761 228.783684 
L 116.131219 228.584048 
L 130.391507 238.71614 
L 132.932288 235.322336 
z
" clip-path="url(#p97c9c94a8a)" style="fill: #ff0000; stroke: #ff0000; stroke-width: 2; stroke-linejoin: miter"/>
   </g>
   <g id="matplotlib.axis_1">
    <g id="xtick_1">
     <g id="line2d_1">
      <defs>
       <path id="mc24de4ab36" d="M 0 0 
L 0 3.5 
" style="stroke: #000000; stroke-width: 0.8"/>
      </defs>
      <g>
       <use xlink:href="#mc24de4ab36" x="56.741193" y="305.761812" style="stroke: #000000; stroke-width: 0.8"/>
      </g>
     </g>
     <g id="text_1">
      <!-- 0.0 -->
      <g transform="translate(48.789631 320.36025)scale(0.1 -0.1)">
       <defs>
        <path id="DejaVuSans-30" d="M 2034 4250 
Q 1547 4250 1301 3770 
Q 1056 3291 1056 2328 
Q 1056 1369 1301 889 
Q 1547 409 2034 409 
Q 2525 409 2770 889 
Q 3016 1369 3016 2328 
Q 3016 3291 2770 3770 
Q 2525 4250 2034 4250 
z
M 2034 4750 
Q 2819 4750 3233 4129 
Q 3647 3509 3647 2328 
Q 3647 1150 3233 529 
Q 2819 -91 2034 -91 
Q 1250 -91 836 529 
Q 422 1150 422 2328 
Q 422 3509 836 4129 
Q 1250 4750 2034 4750 
z
" transform="scale(0.015625)"/>
        <path id="DejaVuSans-2e" d="M 684 794 
L 1344 794 
L 1344 0 
L 684 0 
L 684 794 
z
" transform="scale(0.015625)"/>
       </defs>
       <use xlink:href="#DejaVuSans-30"/>
       <use xlink:href="#DejaVuSans-2e" x="63.623047"/>
       <use xlink:href="#DejaVuSans-30" x="95.410156"/>
      </g>
     </g>
    </g>
    <g id="xtick_2">
     <g id="line2d_2">
      <g>
       <use xlink:href="#mc24de4ab36" x="107.468466" y="305.761812" style="stroke: #000000; stroke-width: 0.8"/>
      </g>
     </g>
     <g id="text_2">
      <!-- 0.2 -->
      <g transform="translate(99.516903 320.36025)scale(0.1 -0.1)">
       <defs>
        <path id="DejaVuSans-32" d="M 1228 531 
L 3431 531 
L 3431 0 
L 469 0 
L 469 531 
Q 828 903 1448 1529 
Q 2069 2156 2228 2338 
Q 2531 2678 2651 2914 
Q 2772 3150 2772 3378 
Q 2772 3750 2511 3984 
Q 2250 4219 1831 4219 
Q 1534 4219 1204 4116 
Q 875 4013 500 3803 
L 500 4441 
Q 881 4594 1212 4672 
Q 1544 4750 1819 4750 
Q 2544 4750 2975 4387 
Q 3406 4025 3406 3419 
Q 3406 3131 3298 2873 
Q 3191 2616 2906 2266 
Q 2828 2175 2409 1742 
Q 1991 1309 1228 531 
z
" transform="scale(0.015625)"/>
       </defs>
       <use xlink:href="#DejaVuSans-30"/>
       <use xlink:href="#DejaVuSans-2e" x="63.623047"/>
       <use xlink:href="#DejaVuSans-32" x="95.410156"/>
      </g>
     </g>
    </g>
    <g id="xtick_3">
     <g id="line2d_3">
      <g>
       <use xlink:href="#mc24de4ab36" x="158.195739" y="305.761812" style="stroke: #000000; stroke-width: 0.8"/>
      </g>
     </g>
     <g id="text_3">
      <!-- 0.4 -->
      <g transform="translate(150.244176 320.36025)scale(0.1 -0.1)">
       <defs>
        <path id="DejaVuSans-34" d="M 2419 4116 
L 825 1625 
L 2419 1625 
L 2419 4116 
z
M 2253 4666 
L 3047 4666 
L 3047 1625 
L 3713 1625 
L 3713 1100 
L 3047 1100 
L 3047 0 
L 2419 0 
L 2419 1100 
L 313 1100 
L 313 1709 
L 2253 4666 
z
" transform="scale(0.015625)"/>
       </defs>
       <use xlink:href="#DejaVuSans-30"/>
       <use xlink:href="#DejaVuSans-2e" x="63.623047"/>
       <use xlink:href="#DejaVuSans-34" x="95.410156"/>
      </g>
     </g>
    </g>
    <g id="xtick_4">
     <g id="line2d_4">
      <g>
       <use xlink:href="#mc24de4ab36" x="208.923011" y="305.761812" style="stroke: #000000; stroke-width: 0.8"/>
      </g>
     </g>
     <g id="text_4">
      <!-- 0.6 -->
      <g transform="translate(200.971449 320.36025)scale(0.1 -0.1)">
       <defs>
        <path id="DejaVuSans-36" d="M 2113 2584 
Q 1688 2584 1439 2293 
Q 1191 2003 1191 1497 
Q 1191 994 1439 701 
Q 1688 409 2113 409 
Q 2538 409 2786 701 
Q 3034 994 3034 1497 
Q 3034 2003 2786 2293 
Q 2538 2584 2113 2584 
z
M 3366 4563 
L 3366 3988 
Q 3128 4100 2886 4159 
Q 2644 4219 2406 4219 
Q 1781 4219 1451 3797 
Q 1122 3375 1075 2522 
Q 1259 2794 1537 2939 
Q 1816 3084 2150 3084 
Q 2853 3084 3261 2657 
Q 3669 2231 3669 1497 
Q 3669 778 3244 343 
Q 2819 -91 2113 -91 
Q 1303 -91 875 529 
Q 447 1150 447 2328 
Q 447 3434 972 4092 
Q 1497 4750 2381 4750 
Q 2619 4750 2861 4703 
Q 3103 4656 3366 4563 
z
" transform="scale(0.015625)"/>
       </defs>
       <use xlink:href="#DejaVuSans-30"/>
       <use xlink:href="#DejaVuSans-2e" x="63.623047"/>
       <use xlink:href="#DejaVuSans-36" x="95.410156"/>
      </g>
     </g>
    </g>
    <g id="xtick_5">
     <g id="line2d_5">
      <g>
       <use xlink:href="#mc24de4ab36" x="259.650284" y="305.761812" style="stroke: #000000; stroke-width: 0.8"/>
      </g>
     </g>
     <g id="text_5">
      <!-- 0.8 -->
      <g transform="translate(251.698722 320.36025)scale(0.1 -0.1)">
       <defs>
        <path id="DejaVuSans-38" d="M 2034 2216 
Q 1584 2216 1326 1975 
Q 1069 1734 1069 1313 
Q 1069 891 1326 650 
Q 1584 409 2034 409 
Q 2484 409 2743 651 
Q 3003 894 3003 1313 
Q 3003 1734 2745 1975 
Q 2488 2216 2034 2216 
z
M 1403 2484 
Q 997 2584 770 2862 
Q 544 3141 544 3541 
Q 544 4100 942 4425 
Q 1341 4750 2034 4750 
Q 2731 4750 3128 4425 
Q 3525 4100 3525 3541 
Q 3525 3141 3298 2862 
Q 3072 2584 2669 2484 
Q 3125 2378 3379 2068 
Q 3634 1759 3634 1313 
Q 3634 634 3220 271 
Q 2806 -91 2034 -91 
Q 1263 -91 848 271 
Q 434 634 434 1313 
Q 434 1759 690 2068 
Q 947 2378 1403 2484 
z
M 1172 3481 
Q 1172 3119 1398 2916 
Q 1625 2713 2034 2713 
Q 2441 2713 2670 2916 
Q 2900 3119 2900 3481 
Q 2900 3844 2670 4047 
Q 2441 4250 2034 4250 
Q 1625 4250 1398 4047 
Q 1172 3844 1172 3481 
z
" transform="scale(0.015625)"/>
       </defs>
       <use xlink:href="#DejaVuSans-30"/>
       <use xlink:href="#DejaVuSans-2e" x="63.623047"/>
       <use xlink:href="#DejaVuSans-38" x="95.410156"/>
      </g>
     </g>
    </g>
    <g id="xtick_6">
     <g id="line2d_6">
      <g>
       <use xlink:href="#mc24de4ab36" x="310.377557" y="305.761812" style="stroke: #000000; stroke-width: 0.8"/>
      </g>
     </g>
     <g id="text_6">
      <!-- 1.0 -->
      <g transform="translate(302.425994 320.36025)scale(0.1 -0.1)">
       <defs>
        <path id="DejaVuSans-31" d="M 794 531 
L 1825 531 
L 1825 4091 
L 703 3866 
L 703 4441 
L 1819 4666 
L 2450 4666 
L 2450 531 
L 3481 531 
L 3481 0 
L 794 0 
L 794 531 
z
" transform="scale(0.015625)"/>
       </defs>
       <use xlink:href="#DejaVuSans-31"/>
       <use xlink:href="#DejaVuSans-2e" x="63.623047"/>
       <use xlink:href="#DejaVuSans-30" x="95.410156"/>
      </g>
     </g>
    </g>
    <g id="text_7">
     <!-- Mean excitatory activity (m_e) -->
     <g transform="translate(107.332031 334.038375)scale(0.1 -0.1)">
      <defs>
       <path id="DejaVuSans-4d" d="M 628 4666 
L 1569 4666 
L 2759 1491 
L 3956 4666 
L 4897 4666 
L 4897 0 
L 4281 0 
L 4281 4097 
L 3078 897 
L 2444 897 
L 1241 4097 
L 1241 0 
L 628 0 
L 628 4666 
z
" transform="scale(0.015625)"/>
       <path id="DejaVuSans-65" d="M 3597 1894 
L 3597 1613 
L 953 1613 
Q 991 1019 1311 708 
Q 1631 397 2203 397 
Q 2534 397 2845 478 
Q 3156 559 3463 722 
L 3463 178 
Q 3153 47 2828 -22 
Q 2503 -91 2169 -91 
Q 1331 -91 842 396 
Q 353 884 353 1716 
Q 353 2575 817 3079 
Q 1281 3584 2069 3584 
Q 2775 3584 3186 3129 
Q 3597 2675 3597 1894 
z
M 3022 2063 
Q 3016 2534 2758 2815 
Q 2500 3097 2075 3097 
Q 1594 3097 1305 2825 
Q 1016 2553 972 2059 
L 3022 2063 
z
" transform="scale(0.015625)"/>
       <path id="DejaVuSans-61" d="M 2194 1759 
Q 1497 1759 1228 1600 
Q 959 1441 959 1056 
Q 959 750 1161 570 
Q 1363 391 1709 391 
Q 2188 391 2477 730 
Q 2766 1069 2766 1631 
L 2766 1759 
L 2194 1759 
z
M 3341 1997 
L 3341 0 
L 2766 0 
L 2766 531 
Q 2569 213 2275 61 
Q 1981 -91 1556 -91 
Q 1019 -91 701 211 
Q 384 513 384 1019 
Q 384 1609 779 1909 
Q 1175 2209 1959 2209 
L 2766 2209 
L 2766 2266 
Q 2766 2663 2505 2880 
Q 2244 3097 1772 3097 
Q 1472 3097 1187 3025 
Q 903 2953 641 2809 
L 641 3341 
Q 956 3463 1253 3523 
Q 1550 3584 1831 3584 
Q 2591 3584 2966 3190 
Q 3341 2797 3341 1997 
z
" transform="scale(0.015625)"/>
       <path id="DejaVuSans-6e" d="M 3513 2113 
L 3513 0 
L 2938 0 
L 2938 2094 
Q 2938 2591 2744 2837 
Q 2550 3084 2163 3084 
Q 1697 3084 1428 2787 
Q 1159 2491 1159 1978 
L 1159 0 
L 581 0 
L 581 3500 
L 1159 3500 
L 1159 2956 
Q 1366 3272 1645 3428 
Q 1925 3584 2291 3584 
Q 2894 3584 3203 3211 
Q 3513 2838 3513 2113 
z
" transform="scale(0.015625)"/>
       <path id="DejaVuSans-20" transform="scale(0.015625)"/>
       <path id="DejaVuSans-78" d="M 3513 3500 
L 2247 1797 
L 3578 0 
L 2900 0 
L 1881 1375 
L 863 0 
L 184 0 
L 1544 1831 
L 300 3500 
L 978 3500 
L 1906 2253 
L 2834 3500 
L 3513 3500 
z
" transform="scale(0.015625)"/>
       <path id="DejaVuSans-63" d="M 3122 3366 
L 3122 2828 
Q 2878 2963 2633 3030 
Q 2388 3097 2138 3097 
Q 1578 3097 1268 2742 
Q 959 2388 959 1747 
Q 959 1106 1268 751 
Q 1578 397 2138 397 
Q 2388 397 2633 464 
Q 2878 531 3122 666 
L 3122 134 
Q 2881 22 2623 -34 
Q 2366 -91 2075 -91 
Q 1284 -91 818 406 
Q 353 903 353 1747 
Q 353 2603 823 3093 
Q 1294 3584 2113 3584 
Q 2378 3584 2631 3529 
Q 2884 3475 3122 3366 
z
" transform="scale(0.015625)"/>
       <path id="DejaVuSans-69" d="M 603 3500 
L 1178 3500 
L 1178 0 
L 603 0 
L 603 3500 
z
M 603 4863 
L 1178 4863 
L 1178 4134 
L 603 4134 
L 603 4863 
z
" transform="scale(0.015625)"/>
       <path id="DejaVuSans-74" d="M 1172 4494 
L 1172 3500 
L 2356 3500 
L 2356 3053 
L 1172 3053 
L 1172 1153 
Q 1172 725 1289 603 
Q 1406 481 1766 481 
L 2356 481 
L 2356 0 
L 1766 0 
Q 1100 0 847 248 
Q 594 497 594 1153 
L 594 3053 
L 172 3053 
L 172 3500 
L 594 3500 
L 594 4494 
L 1172 4494 
z
" transform="scale(0.015625)"/>
       <path id="DejaVuSans-6f" d="M 1959 3097 
Q 1497 3097 1228 2736 
Q 959 2375 959 1747 
Q 959 1119 1226 758 
Q 1494 397 1959 397 
Q 2419 397 2687 759 
Q 2956 1122 2956 1747 
Q 2956 2369 2687 2733 
Q 2419 3097 1959 3097 
z
M 1959 3584 
Q 2709 3584 3137 3096 
Q 3566 2609 3566 1747 
Q 3566 888 3137 398 
Q 2709 -91 1959 -91 
Q 1206 -91 779 398 
Q 353 888 353 1747 
Q 353 2609 779 3096 
Q 1206 3584 1959 3584 
z
" transform="scale(0.015625)"/>
       <path id="DejaVuSans-72" d="M 2631 2963 
Q 2534 3019 2420 3045 
Q 2306 3072 2169 3072 
Q 1681 3072 1420 2755 
Q 1159 2438 1159 1844 
L 1159 0 
L 581 0 
L 581 3500 
L 1159 3500 
L 1159 2956 
Q 1341 3275 1631 3429 
Q 1922 3584 2338 3584 
Q 2397 3584 2469 3576 
Q 2541 3569 2628 3553 
L 2631 2963 
z
" transform="scale(0.015625)"/>
       <path id="DejaVuSans-79" d="M 2059 -325 
Q 1816 -950 1584 -1140 
Q 1353 -1331 966 -1331 
L 506 -1331 
L 506 -850 
L 844 -850 
Q 1081 -850 1212 -737 
Q 1344 -625 1503 -206 
L 1606 56 
L 191 3500 
L 800 3500 
L 1894 763 
L 2988 3500 
L 3597 3500 
L 2059 -325 
z
" transform="scale(0.015625)"/>
       <path id="DejaVuSans-76" d="M 191 3500 
L 800 3500 
L 1894 563 
L 2988 3500 
L 3597 3500 
L 2284 0 
L 1503 0 
L 191 3500 
z
" transform="scale(0.015625)"/>
       <path id="DejaVuSans-28" d="M 1984 4856 
Q 1566 4138 1362 3434 
Q 1159 2731 1159 2009 
Q 1159 1288 1364 580 
Q 1569 -128 1984 -844 
L 1484 -844 
Q 1016 -109 783 600 
Q 550 1309 550 2009 
Q 550 2706 781 3412 
Q 1013 4119 1484 4856 
L 1984 4856 
z
" transform="scale(0.015625)"/>
       <path id="DejaVuSans-6d" d="M 3328 2828 
Q 3544 3216 3844 3400 
Q 4144 3584 4550 3584 
Q 5097 3584 5394 3201 
Q 5691 2819 5691 2113 
L 5691 0 
L 5113 0 
L 5113 2094 
Q 5113 2597 4934 2840 
Q 4756 3084 4391 3084 
Q 3944 3084 3684 2787 
Q 3425 2491 3425 1978 
L 3425 0 
L 2847 0 
L 2847 2094 
Q 2847 2600 2669 2842 
Q 2491 3084 2119 3084 
Q 1678 3084 1418 2786 
Q 1159 2488 1159 1978 
L 1159 0 
L 581 0 
L 581 3500 
L 1159 3500 
L 1159 2956 
Q 1356 3278 1631 3431 
Q 1906 3584 2284 3584 
Q 2666 3584 2933 3390 
Q 3200 3197 3328 2828 
z
" transform="scale(0.015625)"/>
       <path id="DejaVuSans-5f" d="M 3263 -1063 
L 3263 -1509 
L -63 -1509 
L -63 -1063 
L 3263 -1063 
z
" transform="scale(0.015625)"/>
       <path id="DejaVuSans-29" d="M 513 4856 
L 1013 4856 
Q 1481 4119 1714 3412 
Q 1947 2706 1947 2009 
Q 1947 1309 1714 600 
Q 1481 -109 1013 -844 
L 513 -844 
Q 928 -128 1133 580 
Q 1338 1288 1338 2009 
Q 1338 2731 1133 3434 
Q 928 4138 513 4856 
z
" transform="scale(0.015625)"/>
      </defs>
      <use xlink:href="#DejaVuSans-4d"/>
      <use xlink:href="#DejaVuSans-65" x="86.279297"/>
      <use xlink:href="#DejaVuSans-61" x="147.802734"/>
      <use xlink:href="#DejaVuSans-6e" x="209.082031"/>
      <use xlink:href="#DejaVuSans-20" x="272.460938"/>
      <use xlink:href="#DejaVuSans-65" x="304.248047"/>
      <use xlink:href="#DejaVuSans-78" x="364.021484"/>
      <use xlink:href="#DejaVuSans-63" x="421.451172"/>
      <use xlink:href="#DejaVuSans-69" x="476.431641"/>
      <use xlink:href="#DejaVuSans-74" x="504.214844"/>
      <use xlink:href="#DejaVuSans-61" x="543.423828"/>
      <use xlink:href="#DejaVuSans-74" x="604.703125"/>
      <use xlink:href="#DejaVuSans-6f" x="643.912109"/>
      <use xlink:href="#DejaVuSans-72" x="705.09375"/>
      <use xlink:href="#DejaVuSans-79" x="746.207031"/>
      <use xlink:href="#DejaVuSans-20" x="805.386719"/>
      <use xlink:href="#DejaVuSans-61" x="837.173828"/>
      <use xlink:href="#DejaVuSans-63" x="898.453125"/>
      <use xlink:href="#DejaVuSans-74" x="953.433594"/>
      <use xlink:href="#DejaVuSans-69" x="992.642578"/>
      <use xlink:href="#DejaVuSans-76" x="1020.425781"/>
      <use xlink:href="#DejaVuSans-69" x="1079.605469"/>
      <use xlink:href="#DejaVuSans-74" x="1107.388672"/>
      <use xlink:href="#DejaVuSans-79" x="1146.597656"/>
      <use xlink:href="#DejaVuSans-20" x="1205.777344"/>
      <use xlink:href="#DejaVuSans-28" x="1237.564453"/>
      <use xlink:href="#DejaVuSans-6d" x="1276.578125"/>
      <use xlink:href="#DejaVuSans-5f" x="1373.990234"/>
      <use xlink:href="#DejaVuSans-65" x="1423.990234"/>
      <use xlink:href="#DejaVuSans-29" x="1485.513672"/>
     </g>
    </g>
   </g>
   <g id="matplotlib.axis_2">
    <g id="ytick_1">
     <g id="line2d_7">
      <defs>
       <path id="mefe8248bdc" d="M 0 0 
L -3.5 0 
" style="stroke: #000000; stroke-width: 0.8"/>
      </defs>
      <g>
       <use xlink:href="#mefe8248bdc" x="44.059375" y="293.407267" style="stroke: #000000; stroke-width: 0.8"/>
      </g>
     </g>
     <g id="text_8">
      <!-- 0.0 -->
      <g transform="translate(21.15625 297.206486)scale(0.1 -0.1)">
       <use xlink:href="#DejaVuSans-30"/>
       <use xlink:href="#DejaVuSans-2e" x="63.623047"/>
       <use xlink:href="#DejaVuSans-30" x="95.410156"/>
      </g>
     </g>
    </g>
    <g id="ytick_2">
     <g id="line2d_8">
      <g>
       <use xlink:href="#mefe8248bdc" x="44.059375" y="243.989085" style="stroke: #000000; stroke-width: 0.8"/>
      </g>
     </g>
     <g id="text_9">
      <!-- 0.2 -->
      <g transform="translate(21.15625 247.788304)scale(0.1 -0.1)">
       <use xlink:href="#DejaVuSans-30"/>
       <use xlink:href="#DejaVuSans-2e" x="63.623047"/>
       <use xlink:href="#DejaVuSans-32" x="95.410156"/>
      </g>
     </g>
    </g>
    <g id="ytick_3">
     <g id="line2d_9">
      <g>
       <use xlink:href="#mefe8248bdc" x="44.059375" y="194.570903" style="stroke: #000000; stroke-width: 0.8"/>
      </g>
     </g>
     <g id="text_10">
      <!-- 0.4 -->
      <g transform="translate(21.15625 198.370122)scale(0.1 -0.1)">
       <use xlink:href="#DejaVuSans-30"/>
       <use xlink:href="#DejaVuSans-2e" x="63.623047"/>
       <use xlink:href="#DejaVuSans-34" x="95.410156"/>
      </g>
     </g>
    </g>
    <g id="ytick_4">
     <g id="line2d_10">
      <g>
       <use xlink:href="#mefe8248bdc" x="44.059375" y="145.152722" style="stroke: #000000; stroke-width: 0.8"/>
      </g>
     </g>
     <g id="text_11">
      <!-- 0.6 -->
      <g transform="translate(21.15625 148.95194)scale(0.1 -0.1)">
       <use xlink:href="#DejaVuSans-30"/>
       <use xlink:href="#DejaVuSans-2e" x="63.623047"/>
       <use xlink:href="#DejaVuSans-36" x="95.410156"/>
      </g>
     </g>
    </g>
    <g id="ytick_5">
     <g id="line2d_11">
      <g>
       <use xlink:href="#mefe8248bdc" x="44.059375" y="95.73454" style="stroke: #000000; stroke-width: 0.8"/>
      </g>
     </g>
     <g id="text_12">
      <!-- 0.8 -->
      <g transform="translate(21.15625 99.533759)scale(0.1 -0.1)">
       <use xlink:href="#DejaVuSans-30"/>
       <use xlink:href="#DejaVuSans-2e" x="63.623047"/>
       <use xlink:href="#DejaVuSans-38" x="95.410156"/>
      </g>
     </g>
    </g>
    <g id="ytick_6">
     <g id="line2d_12">
      <g>
       <use xlink:href="#mefe8248bdc" x="44.059375" y="46.316358" style="stroke: #000000; stroke-width: 0.8"/>
      </g>
     </g>
     <g id="text_13">
      <!-- 1.0 -->
      <g transform="translate(21.15625 50.115577)scale(0.1 -0.1)">
       <use xlink:href="#DejaVuSans-31"/>
       <use xlink:href="#DejaVuSans-2e" x="63.623047"/>
       <use xlink:href="#DejaVuSans-30" x="95.410156"/>
      </g>
     </g>
    </g>
    <g id="text_14">
     <!-- Mean inhibitory activity (m_i) -->
     <g transform="translate(14.798438 243.057125)rotate(-90)scale(0.1 -0.1)">
      <defs>
       <path id="DejaVuSans-68" d="M 3513 2113 
L 3513 0 
L 2938 0 
L 2938 2094 
Q 2938 2591 2744 2837 
Q 2550 3084 2163 3084 
Q 1697 3084 1428 2787 
Q 1159 2491 1159 1978 
L 1159 0 
L 581 0 
L 581 4863 
L 1159 4863 
L 1159 2956 
Q 1366 3272 1645 3428 
Q 1925 3584 2291 3584 
Q 2894 3584 3203 3211 
Q 3513 2838 3513 2113 
z
" transform="scale(0.015625)"/>
       <path id="DejaVuSans-62" d="M 3116 1747 
Q 3116 2381 2855 2742 
Q 2594 3103 2138 3103 
Q 1681 3103 1420 2742 
Q 1159 2381 1159 1747 
Q 1159 1113 1420 752 
Q 1681 391 2138 391 
Q 2594 391 2855 752 
Q 3116 1113 3116 1747 
z
M 1159 2969 
Q 1341 3281 1617 3432 
Q 1894 3584 2278 3584 
Q 2916 3584 3314 3078 
Q 3713 2572 3713 1747 
Q 3713 922 3314 415 
Q 2916 -91 2278 -91 
Q 1894 -91 1617 61 
Q 1341 213 1159 525 
L 1159 0 
L 581 0 
L 581 4863 
L 1159 4863 
L 1159 2969 
z
" transform="scale(0.015625)"/>
      </defs>
      <use xlink:href="#DejaVuSans-4d"/>
      <use xlink:href="#DejaVuSans-65" x="86.279297"/>
      <use xlink:href="#DejaVuSans-61" x="147.802734"/>
      <use xlink:href="#DejaVuSans-6e" x="209.082031"/>
      <use xlink:href="#DejaVuSans-20" x="272.460938"/>
      <use xlink:href="#DejaVuSans-69" x="304.248047"/>
      <use xlink:href="#DejaVuSans-6e" x="332.03125"/>
      <use xlink:href="#DejaVuSans-68" x="395.410156"/>
      <use xlink:href="#DejaVuSans-69" x="458.789062"/>
      <use xlink:href="#DejaVuSans-62" x="486.572266"/>
      <use xlink:href="#DejaVuSans-69" x="550.048828"/>
      <use xlink:href="#DejaVuSans-74" x="577.832031"/>
      <use xlink:href="#DejaVuSans-6f" x="617.041016"/>
      <use xlink:href="#DejaVuSans-72" x="678.222656"/>
      <use xlink:href="#DejaVuSans-79" x="719.335938"/>
      <use xlink:href="#DejaVuSans-20" x="778.515625"/>
      <use xlink:href="#DejaVuSans-61" x="810.302734"/>
      <use xlink:href="#DejaVuSans-63" x="871.582031"/>
      <use xlink:href="#DejaVuSans-74" x="926.5625"/>
      <use xlink:href="#DejaVuSans-69" x="965.771484"/>
      <use xlink:href="#DejaVuSans-76" x="993.554688"/>
      <use xlink:href="#DejaVuSans-69" x="1052.734375"/>
      <use xlink:href="#DejaVuSans-74" x="1080.517578"/>
      <use xlink:href="#DejaVuSans-79" x="1119.726562"/>
      <use xlink:href="#DejaVuSans-20" x="1178.90625"/>
      <use xlink:href="#DejaVuSans-28" x="1210.693359"/>
      <use xlink:href="#DejaVuSans-6d" x="1249.707031"/>
      <use xlink:href="#DejaVuSans-5f" x="1347.119141"/>
      <use xlink:href="#DejaVuSans-69" x="1397.119141"/>
      <use xlink:href="#DejaVuSans-29" x="1424.902344"/>
     </g>
    </g>
   </g>
   <g id="line2d_13">
    <path d="M 58.009375 46.316358 
L 58.009375 50.269812 
L 58.009375 46.81054 
L 58.263011 61.141812 
L 58.263011 55.705812 
L 58.263011 50.763994 
L 58.263011 53.234903 
L 58.770284 78.932358 
L 58.770284 74.978903 
L 58.770284 71.025449 
L 58.770284 74.484722 
L 59.02392 86.345085 
L 59.02392 79.920722 
L 59.02392 79.42654 
L 59.277557 92.769449 
L 59.277557 88.815994 
L 59.78483 102.653085 
L 59.78483 99.193812 
L 59.78483 104.135631 
L 60.038466 108.089085 
L 60.038466 104.629812 
L 60.038466 109.571631 
L 60.038466 106.112358 
L 60.292102 113.525085 
L 60.292102 114.019267 
L 60.292102 111.054176 
L 60.545739 118.466903 
L 60.545739 115.007631 
L 60.545739 114.513449 
L 61.053011 126.373812 
L 61.053011 125.385449 
L 61.053011 123.408722 
L 61.053011 125.879631 
L 61.053011 124.891267 
L 61.306648 128.35054 
L 61.306648 127.856358 
L 61.306648 130.327267 
L 61.306648 126.867994 
L 61.306648 129.338903 
L 61.560284 133.78654 
L 61.560284 130.821449 
L 61.560284 131.315631 
L 62.067557 140.210903 
L 62.067557 137.245812 
L 62.067557 137.739994 
L 62.321193 140.705085 
L 62.321193 143.175994 
L 62.321193 141.693449 
L 62.57483 144.164358 
L 62.57483 146.141085 
L 62.57483 143.670176 
L 62.828466 146.635267 
L 62.828466 148.611994 
L 63.082102 151.082903 
L 63.082102 150.09454 
L 63.082102 149.106176 
L 63.082102 150.588722 
L 63.335739 151.577085 
L 63.335739 153.553812 
L 63.335739 153.059631 
L 63.589375 156.024722 
L 63.589375 155.036358 
L 63.589375 154.047994 
L 63.589375 154.542176 
L 63.843011 156.518903 
L 63.843011 158.495631 
L 64.096648 159.978176 
L 64.096648 158.989812 
L 64.096648 160.472358 
L 64.350284 160.96654 
L 64.350284 162.449085 
L 64.350284 161.460722 
L 64.60392 163.437449 
L 64.60392 164.425812 
L 64.60392 163.931631 
L 64.857557 166.40254 
L 64.857557 164.919994 
L 65.111193 168.379267 
L 65.111193 166.896722 
L 65.618466 171.83854 
L 65.618466 170.850176 
L 65.618466 171.344358 
L 65.872102 173.815267 
L 65.872102 172.826903 
L 65.872102 172.332722 
L 66.125739 174.803631 
L 66.125739 175.297812 
L 66.379375 177.27454 
L 66.379375 175.791994 
L 66.633011 178.262903 
L 66.633011 178.757085 
L 66.886648 180.239631 
L 66.886648 179.251267 
L 66.886648 179.745449 
L 67.140284 180.733812 
L 67.140284 181.722176 
L 67.140284 181.227994 
L 67.39392 182.216358 
L 67.39392 182.71054 
L 67.647557 184.193085 
L 67.647557 183.698903 
L 67.647557 183.204722 
L 68.15483 187.158176 
L 68.15483 186.169812 
L 68.408466 188.14654 
L 68.408466 187.652358 
L 68.662102 188.640722 
L 68.662102 189.629085 
L 68.662102 189.134903 
L 68.915739 190.123267 
L 68.915739 190.617449 
L 69.169375 191.111631 
L 69.169375 191.605812 
L 69.423011 193.088358 
L 69.423011 192.099994 
L 69.423011 192.594176 
L 69.676648 193.58254 
L 69.676648 194.076722 
L 69.930284 194.570903 
L 69.930284 195.065085 
L 70.18392 195.559267 
L 70.18392 196.053449 
L 70.437557 197.041812 
L 70.437557 196.547631 
L 70.691193 197.535994 
L 70.691193 198.030176 
L 70.94483 198.524358 
L 70.94483 199.01854 
L 71.198466 200.006903 
L 71.198466 199.512722 
L 71.452102 200.501085 
L 71.452102 200.995267 
L 71.705739 201.489449 
L 71.705739 201.983631 
L 72.213011 202.971994 
L 72.213011 203.466176 
L 72.466648 203.960358 
L 72.466648 204.45454 
L 72.720284 204.948722 
L 72.97392 205.937085 
L 72.97392 205.442903 
L 73.481193 207.419631 
L 73.481193 206.925449 
L 73.988466 208.902176 
L 73.988466 208.407994 
L 74.495739 210.384722 
L 74.495739 209.89054 
L 74.749375 210.878903 
L 75.256648 211.867267 
L 75.256648 212.361449 
L 76.52483 214.832358 
L 76.52483 215.32654 
L 79.061193 220.268358 
L 79.568466 220.76254 
L 80.583011 222.739267 
L 81.090284 223.233449 
L 81.597557 224.221812 
L 82.10483 224.715994 
L 82.358466 225.210176 
L 83.373011 226.19854 
L 83.626648 226.692722 
L 86.670284 229.657812 
L 87.431193 230.151994 
L 87.938466 230.646176 
L 88.699375 231.140358 
L 93.011193 233.117085 
L 94.533011 233.611267 
L 98.337557 234.105449 
L 99.605739 234.105449 
L 103.917557 233.611267 
L 105.946648 233.117085 
L 108.990284 232.128722 
L 117.867557 227.681085 
L 120.911193 225.704358 
L 121.418466 225.210176 
L 123.701193 223.727631 
L 124.208466 223.233449 
L 125.730284 222.245085 
L 126.237557 221.750903 
L 126.998466 221.256722 
L 128.013011 220.268358 
L 128.77392 219.774176 
L 129.281193 219.279994 
L 130.042102 218.785812 
L 131.56392 217.303267 
L 132.32483 216.809085 
L 133.846648 215.32654 
L 134.607557 214.832358 
L 138.158466 211.373085 
L 138.919375 210.878903 
L 144.499375 205.442903 
L 144.753011 204.948722 
L 149.318466 200.501085 
L 149.572102 200.006903 
L 152.615739 197.041812 
L 152.869375 196.547631 
L 154.898466 194.570903 
L 155.152102 194.076722 
L 157.181193 192.099994 
L 157.43483 191.605812 
L 159.46392 189.629085 
L 159.717557 189.134903 
L 161.239375 187.652358 
L 161.493011 187.158176 
L 163.01483 185.675631 
L 163.268466 185.181449 
L 164.283011 184.193085 
L 164.536648 183.698903 
L 166.058466 182.216358 
L 166.312102 181.722176 
L 167.83392 180.239631 
L 168.087557 179.745449 
L 169.102102 178.757085 
L 169.355739 178.262903 
L 170.370284 177.27454 
L 170.62392 176.780358 
L 172.145739 175.297812 
L 172.399375 174.803631 
L 173.41392 173.815267 
L 173.667557 173.321085 
L 174.682102 172.332722 
L 174.935739 171.83854 
L 175.950284 170.850176 
L 176.20392 170.355994 
L 177.725739 168.873449 
L 177.979375 168.379267 
L 178.99392 167.390903 
L 179.247557 166.896722 
L 180.262102 165.908358 
L 180.515739 165.414176 
L 181.530284 164.425812 
L 181.78392 163.931631 
L 182.798466 162.943267 
L 183.052102 162.449085 
L 184.066648 161.460722 
L 184.320284 160.96654 
L 185.33483 159.978176 
L 185.588466 159.483994 
L 187.110284 158.001449 
L 187.36392 157.507267 
L 188.378466 156.518903 
L 188.632102 156.024722 
L 189.646648 155.036358 
L 189.900284 154.542176 
L 190.91483 153.553812 
L 191.168466 153.059631 
L 192.183011 152.071267 
L 192.436648 151.577085 
L 193.451193 150.588722 
L 193.70483 150.09454 
L 195.226648 148.611994 
L 195.480284 148.117812 
L 196.49483 147.129449 
L 196.748466 146.635267 
L 197.763011 145.646903 
L 198.016648 145.152722 
L 199.538466 143.670176 
L 199.792102 143.175994 
L 200.806648 142.187631 
L 201.060284 141.693449 
L 202.582102 140.210903 
L 202.835739 139.716722 
L 204.357557 138.234176 
L 204.611193 137.739994 
L 206.133011 136.257449 
L 206.386648 135.763267 
L 207.908466 134.280722 
L 208.162102 133.78654 
L 210.191193 131.809812 
L 210.44483 131.315631 
L 211.966648 129.833085 
L 212.220284 129.338903 
L 214.756648 126.867994 
L 215.010284 126.373812 
L 218.05392 123.408722 
L 218.307557 122.91454 
L 232.00392 109.571631 
L 232.76483 109.077449 
L 234.79392 107.100722 
L 235.55483 106.60654 
L 236.569375 105.618176 
L 237.330284 105.123994 
L 238.34483 104.135631 
L 239.105739 103.641449 
L 239.613011 103.147267 
L 240.37392 102.653085 
L 240.881193 102.158903 
L 241.642102 101.664722 
L 242.149375 101.17054 
L 243.671193 100.182176 
L 244.178466 99.687994 
L 251.026648 95.240358 
L 258.382102 91.781085 
L 259.650284 91.286903 
L 263.45483 90.29854 
L 272.332102 90.29854 
L 274.107557 90.792722 
L 276.390284 91.781085 
L 278.165739 92.769449 
L 279.687557 93.757812 
L 280.19483 94.251994 
L 280.955739 94.746176 
L 283.492102 97.217085 
L 283.745739 97.711267 
L 284.253011 98.205449 
L 284.506648 98.699631 
L 285.01392 99.193812 
L 285.267557 99.687994 
L 285.77483 100.182176 
L 286.028466 100.676358 
L 286.535739 101.17054 
L 287.550284 103.147267 
L 288.057557 103.641449 
L 290.086648 107.594903 
L 290.340284 108.583267 
L 290.340284 108.089085 
L 290.59392 109.077449 
L 291.608466 111.054176 
L 291.862102 112.04254 
L 291.862102 111.548358 
L 292.115739 112.536722 
L 292.369375 113.030903 
L 292.623011 114.019267 
L 292.623011 113.525085 
L 293.130284 115.501812 
L 293.130284 115.007631 
L 293.38392 115.995994 
L 293.637557 116.490176 
L 293.637557 116.984358 
L 293.891193 117.47854 
L 294.14483 118.466903 
L 294.14483 117.972722 
L 294.398466 118.961085 
L 294.652102 119.455267 
L 294.652102 119.949449 
L 294.905739 120.443631 
L 294.905739 120.937812 
L 295.159375 121.926176 
L 295.159375 121.431994 
L 295.413011 122.420358 
L 295.666648 122.91454 
L 295.666648 123.408722 
L 295.920284 123.902903 
L 295.920284 124.397085 
L 296.17392 125.385449 
L 296.17392 124.891267 
L 296.681193 127.362176 
L 296.681193 126.867994 
L 296.93483 127.856358 
L 296.93483 128.35054 
L 297.188466 129.338903 
L 297.188466 128.844722 
L 297.695739 131.809812 
L 297.949375 132.303994 
L 297.949375 132.798176 
L 298.203011 133.292358 
L 298.203011 134.280722 
L 298.203011 133.78654 
L 298.456648 134.774903 
L 298.456648 135.269085 
L 298.710284 136.751631 
L 298.710284 135.763267 
L 298.710284 136.257449 
L 298.96392 137.245812 
L 298.96392 137.739994 
L 299.217557 139.22254 
L 299.217557 138.728358 
L 299.217557 138.234176 
L 299.471193 139.716722 
L 299.471193 140.705085 
L 299.471193 140.210903 
L 299.978466 143.175994 
L 299.978466 142.681812 
L 299.978466 142.187631 
L 300.485739 146.635267 
L 300.485739 145.152722 
L 300.485739 145.646903 
L 300.993011 149.600358 
L 300.993011 148.611994 
L 300.993011 149.106176 
L 301.246648 151.577085 
L 301.246648 151.082903 
L 301.246648 150.09454 
L 301.75392 155.036358 
L 301.75392 153.553812 
L 302.007557 157.013085 
L 302.261193 157.507267 
L 302.261193 158.989812 
L 302.51483 159.483994 
L 302.51483 160.96654 
L 302.768466 162.943267 
L 302.768466 162.449085 
L 302.768466 161.460722 
L 303.022102 164.919994 
L 303.022102 163.437449 
L 303.275739 165.908358 
L 303.275739 167.390903 
L 303.529375 167.885085 
L 303.529375 169.861812 
L 303.783011 172.332722 
L 303.783011 171.344358 
L 303.783011 170.355994 
L 303.783011 170.850176 
L 304.036648 173.321085 
L 304.036648 174.803631 
L 304.290284 175.297812 
L 304.290284 177.768722 
L 304.54392 180.239631 
L 304.54392 179.745449 
L 304.54392 178.262903 
L 304.54392 179.251267 
L 304.797557 181.227994 
L 304.797557 183.204722 
L 305.051193 186.663994 
L 305.051193 183.698903 
L 305.558466 193.088358 
L 305.558466 190.123267 
L 305.558466 192.594176 
L 305.812102 197.041812 
L 305.812102 195.065085 
L 305.812102 193.58254 
L 306.065739 199.01854 
L 306.065739 200.995267 
L 306.319375 204.948722 
L 306.319375 203.960358 
L 306.319375 201.489449 
L 306.826648 213.843994 
L 306.826648 211.867267 
L 306.826648 209.89054 
L 306.826648 212.361449 
L 307.080284 219.279994 
L 307.080284 216.314903 
L 307.080284 214.338176 
L 307.080284 216.809085 
L 307.33392 224.715994 
L 307.33392 221.750903 
L 307.33392 219.774176 
L 307.33392 222.245085 
L 307.587557 230.646176 
L 307.587557 226.692722 
L 307.587557 225.210176 
L 307.587557 227.681085 
L 307.841193 237.564722 
L 307.841193 233.611267 
L 307.841193 231.140358 
L 308.09483 244.483267 
L 308.09483 240.035631 
L 308.09483 238.058903 
L 308.09483 241.023994 
L 308.348466 252.884358 
L 308.348466 247.94254 
L 308.348466 244.977449 
L 308.348466 248.930903 
L 308.602102 262.273812 
L 308.602102 257.331994 
L 308.602102 253.37854 
L 308.602102 257.826176 
L 308.602102 255.355267 
L 308.855739 273.145812 
L 308.855739 267.709812 
L 308.855739 262.767994 
L 309.109375 285.99454 
L 309.109375 276.605085 
L 309.363011 293.407267 
L 309.363011 293.407267 
" clip-path="url(#p97c9c94a8a)" style="fill: none; stroke: #1f77b4; stroke-opacity: 0.4; stroke-width: 3; stroke-linecap: square"/>
   </g>
   <g id="line2d_14">
    <path d="M 56.741193 271.663267 
L 60.292102 269.933631 
L 60.799375 269.439449 
L 65.36483 267.215631 
L 65.872102 266.721449 
L 68.408466 265.485994 
L 68.915739 264.991812 
L 70.94483 264.003449 
L 71.452102 263.509267 
L 72.97392 262.767994 
L 73.481193 262.273812 
L 75.003011 261.53254 
L 75.510284 261.038358 
L 76.52483 260.544176 
L 77.032102 260.049994 
L 78.046648 259.555812 
L 78.55392 259.061631 
L 79.568466 258.567449 
L 80.075739 258.073267 
L 80.583011 257.826176 
L 81.090284 257.331994 
L 82.10483 256.837812 
L 82.612102 256.343631 
L 83.119375 256.09654 
L 83.626648 255.602358 
L 84.13392 255.355267 
L 84.641193 254.861085 
L 85.148466 254.613994 
L 85.655739 254.119812 
L 86.163011 253.872722 
L 86.670284 253.37854 
L 87.177557 253.131449 
L 87.68483 252.637267 
L 88.192102 252.390176 
L 88.699375 251.895994 
L 89.206648 251.648903 
L 89.71392 251.154722 
L 90.221193 250.907631 
L 90.728466 250.413449 
L 91.235739 250.166358 
L 92.250284 249.177994 
L 92.757557 248.930903 
L 93.26483 248.436722 
L 93.772102 248.189631 
L 94.786648 247.201267 
L 95.29392 246.954176 
L 95.801193 246.459994 
L 96.308466 246.212903 
L 97.323011 245.22454 
L 97.830284 244.977449 
L 99.352102 243.494903 
L 99.859375 243.247812 
L 100.87392 242.259449 
L 101.381193 242.012358 
L 102.903011 240.529812 
L 103.410284 240.282722 
L 105.439375 238.305994 
L 105.946648 238.058903 
L 108.483011 235.587994 
L 108.990284 235.340903 
L 112.541193 231.881631 
L 113.048466 231.63454 
L 125.730284 219.279994 
L 126.237557 218.538722 
L 130.295739 214.585267 
L 130.803011 213.843994 
L 133.339375 211.373085 
L 133.846648 210.631812 
L 136.383011 208.160903 
L 136.890284 207.419631 
L 138.919375 205.442903 
L 139.426648 204.701631 
L 140.948466 203.219085 
L 141.455739 202.477812 
L 142.977557 200.995267 
L 143.48483 200.253994 
L 145.006648 198.771449 
L 145.51392 198.030176 
L 146.528466 197.041812 
L 147.035739 196.30054 
L 148.557557 194.817994 
L 149.06483 194.076722 
L 150.079375 193.088358 
L 150.586648 192.347085 
L 151.601193 191.358722 
L 152.108466 190.617449 
L 153.123011 189.629085 
L 153.630284 188.887812 
L 154.64483 187.899449 
L 155.152102 187.158176 
L 156.166648 186.169812 
L 156.67392 185.42854 
L 157.688466 184.440176 
L 158.195739 183.698903 
L 159.210284 182.71054 
L 159.717557 181.969267 
L 160.732102 180.980903 
L 161.239375 180.239631 
L 162.25392 179.251267 
L 162.761193 178.509994 
L 163.775739 177.521631 
L 164.283011 176.780358 
L 165.297557 175.791994 
L 165.80483 175.050722 
L 166.312102 174.55654 
L 166.819375 173.815267 
L 167.83392 172.826903 
L 168.341193 172.085631 
L 169.355739 171.097267 
L 169.863011 170.355994 
L 170.877557 169.367631 
L 171.38483 168.626358 
L 171.892102 168.132176 
L 172.399375 167.390903 
L 173.41392 166.40254 
L 173.921193 165.661267 
L 174.935739 164.672903 
L 175.443011 163.931631 
L 176.457557 162.943267 
L 176.96483 162.201994 
L 177.472102 161.707812 
L 177.979375 160.96654 
L 178.99392 159.978176 
L 179.501193 159.236903 
L 180.515739 158.24854 
L 181.023011 157.507267 
L 182.037557 156.518903 
L 182.54483 155.777631 
L 183.559375 154.789267 
L 184.066648 154.047994 
L 185.081193 153.059631 
L 185.588466 152.318358 
L 186.603011 151.329994 
L 187.110284 150.588722 
L 188.12483 149.600358 
L 188.632102 148.859085 
L 189.646648 147.870722 
L 190.15392 147.129449 
L 191.675739 145.646903 
L 192.183011 144.905631 
L 193.197557 143.917267 
L 193.70483 143.175994 
L 195.226648 141.693449 
L 195.73392 140.952176 
L 196.748466 139.963812 
L 197.255739 139.22254 
L 198.777557 137.739994 
L 199.28483 136.998722 
L 201.31392 135.021994 
L 201.821193 134.280722 
L 203.343011 132.798176 
L 203.850284 132.056903 
L 206.386648 129.585994 
L 206.89392 128.844722 
L 209.430284 126.373812 
L 209.937557 125.63254 
L 213.488466 122.173267 
L 213.995739 121.431994 
L 228.706648 107.100722 
L 229.21392 106.853631 
L 232.257557 103.88854 
L 232.76483 103.641449 
L 235.301193 101.17054 
L 235.808466 100.923449 
L 237.330284 99.440903 
L 237.837557 99.193812 
L 239.359375 97.711267 
L 239.866648 97.464176 
L 241.388466 95.981631 
L 241.895739 95.73454 
L 242.910284 94.746176 
L 243.417557 94.499085 
L 244.432102 93.510722 
L 244.939375 93.263631 
L 245.95392 92.275267 
L 246.461193 92.028176 
L 246.968466 91.533994 
L 247.475739 91.286903 
L 248.490284 90.29854 
L 248.997557 90.051449 
L 249.50483 89.557267 
L 250.012102 89.310176 
L 250.519375 88.815994 
L 251.026648 88.568903 
L 252.041193 87.58054 
L 252.548466 87.333449 
L 253.055739 86.839267 
L 253.563011 86.592176 
L 254.070284 86.097994 
L 254.577557 85.850903 
L 255.08483 85.356722 
L 256.099375 84.86254 
L 256.606648 84.368358 
L 257.11392 84.121267 
L 257.621193 83.627085 
L 258.128466 83.379994 
L 258.635739 82.885812 
L 259.650284 82.391631 
L 260.157557 81.897449 
L 260.66483 81.650358 
L 261.172102 81.156176 
L 262.186648 80.661994 
L 262.69392 80.167812 
L 263.708466 79.673631 
L 264.215739 79.179449 
L 265.230284 78.685267 
L 265.737557 78.191085 
L 267.259375 77.449812 
L 267.766648 76.955631 
L 269.288466 76.214358 
L 269.795739 75.720176 
L 271.317557 74.978903 
L 271.82483 74.484722 
L 274.361193 73.249267 
L 274.868466 72.755085 
L 279.43392 70.531267 
L 279.941193 70.037085 
L 287.043011 66.577812 
L 287.550284 66.577812 
L 292.115739 64.353994 
L 292.623011 64.353994 
L 295.159375 63.11854 
L 295.666648 63.11854 
L 297.695739 62.130176 
L 298.203011 62.130176 
L 300.232102 61.141812 
L 300.739375 61.141812 
L 301.75392 60.647631 
L 302.261193 60.647631 
L 303.783011 59.906358 
L 304.290284 59.906358 
L 305.30483 59.412176 
L 305.812102 59.412176 
L 306.826648 58.917994 
L 307.33392 58.917994 
L 308.348466 58.423812 
L 308.855739 58.423812 
L 309.870284 57.929631 
L 310.377557 57.929631 
L 310.377557 57.929631 
" clip-path="url(#p97c9c94a8a)" style="fill: none; stroke: #ff7f0e; stroke-opacity: 0.4; stroke-width: 3; stroke-linecap: square"/>
   </g>
   <g id="line2d_15">
    <path d="M 145.51392 243.989085 
L 165.045627 194.569589 
L 170.778671 174.484553 
L 169.628709 168.958799 
L 165.018218 170.829836 
L 158.769594 176.409672 
L 151.941641 183.694801 
L 145.218675 191.474829 
L 139.05756 198.955592 
L 133.729914 205.633395 
L 129.342767 211.252375 
L 125.872958 215.760264 
L 123.21499 219.244055 
L 121.227571 221.861823 
L 119.767394 223.789514 
L 118.707693 225.189371 
L 117.945036 226.196509 
L 117.399198 226.916755 
L 117.009952 227.429887 
L 116.733022 227.794616 
L 116.536291 228.053502 
L 116.396664 228.237112 
L 116.297623 228.367276 
L 116.227396 228.459529 
L 116.177612 228.524904 
L 116.142324 228.57123 
L 116.117314 228.604058 
L 116.099589 228.627319 
L 116.087027 228.643803 
L 116.078124 228.655484 
L 116.071815 228.663761 
L 116.067344 228.669627 
L 116.064176 228.673784 
L 116.06193 228.67673 
L 116.060339 228.678817 
L 116.059211 228.680296 
L 116.058412 228.681345 
L 116.057846 228.682088 
L 116.057444 228.682614 
L 116.05716 228.682987 
L 116.056958 228.683252 
L 116.056816 228.683439 
L 116.056714 228.683572 
L 116.056643 228.683666 
L 116.056592 228.683733 
L 116.056556 228.68378 
L 116.05653 228.683813 
L 116.056512 228.683837 
L 116.056499 228.683854 
L 116.05649 228.683866 
" clip-path="url(#p97c9c94a8a)" style="fill: none; stroke: #000000; stroke-width: 1.5; stroke-linecap: square"/>
    <defs>
     <path id="mbef4f72cbc" d="M 0 1.5 
C 0.397805 1.5 0.77937 1.341951 1.06066 1.06066 
C 1.341951 0.77937 1.5 0.397805 1.5 0 
C 1.5 -0.397805 1.341951 -0.77937 1.06066 -1.06066 
C 0.77937 -1.341951 0.397805 -1.5 0 -1.5 
C -0.397805 -1.5 -0.77937 -1.341951 -1.06066 -1.06066 
C -1.341951 -0.77937 -1.5 -0.397805 -1.5 0 
C -1.5 0.397805 -1.341951 0.77937 -1.06066 1.06066 
C -0.77937 1.341951 -0.397805 1.5 0 1.5 
z
" style="stroke: #000000"/>
    </defs>
    <g clip-path="url(#p97c9c94a8a)">
     <use xlink:href="#mbef4f72cbc" x="145.51392" y="243.989085" style="stroke: #000000"/>
     <use xlink:href="#mbef4f72cbc" x="165.045627" y="194.569589" style="stroke: #000000"/>
     <use xlink:href="#mbef4f72cbc" x="170.778671" y="174.484553" style="stroke: #000000"/>
     <use xlink:href="#mbef4f72cbc" x="169.628709" y="168.958799" style="stroke: #000000"/>
     <use xlink:href="#mbef4f72cbc" x="165.018218" y="170.829836" style="stroke: #000000"/>
     <use xlink:href="#mbef4f72cbc" x="158.769594" y="176.409672" style="stroke: #000000"/>
     <use xlink:href="#mbef4f72cbc" x="151.941641" y="183.694801" style="stroke: #000000"/>
     <use xlink:href="#mbef4f72cbc" x="145.218675" y="191.474829" style="stroke: #000000"/>
     <use xlink:href="#mbef4f72cbc" x="139.05756" y="198.955592" style="stroke: #000000"/>
     <use xlink:href="#mbef4f72cbc" x="133.729914" y="205.633395" style="stroke: #000000"/>
     <use xlink:href="#mbef4f72cbc" x="129.342767" y="211.252375" style="stroke: #000000"/>
     <use xlink:href="#mbef4f72cbc" x="125.872958" y="215.760264" style="stroke: #000000"/>
     <use xlink:href="#mbef4f72cbc" x="123.21499" y="219.244055" style="stroke: #000000"/>
     <use xlink:href="#mbef4f72cbc" x="121.227571" y="221.861823" style="stroke: #000000"/>
     <use xlink:href="#mbef4f72cbc" x="119.767394" y="223.789514" style="stroke: #000000"/>
     <use xlink:href="#mbef4f72cbc" x="118.707693" y="225.189371" style="stroke: #000000"/>
     <use xlink:href="#mbef4f72cbc" x="117.945036" y="226.196509" style="stroke: #000000"/>
     <use xlink:href="#mbef4f72cbc" x="117.399198" y="226.916755" style="stroke: #000000"/>
     <use xlink:href="#mbef4f72cbc" x="117.009952" y="227.429887" style="stroke: #000000"/>
     <use xlink:href="#mbef4f72cbc" x="116.733022" y="227.794616" style="stroke: #000000"/>
     <use xlink:href="#mbef4f72cbc" x="116.536291" y="228.053502" style="stroke: #000000"/>
     <use xlink:href="#mbef4f72cbc" x="116.396664" y="228.237112" style="stroke: #000000"/>
     <use xlink:href="#mbef4f72cbc" x="116.297623" y="228.367276" style="stroke: #000000"/>
     <use xlink:href="#mbef4f72cbc" x="116.227396" y="228.459529" style="stroke: #000000"/>
     <use xlink:href="#mbef4f72cbc" x="116.177612" y="228.524904" style="stroke: #000000"/>
     <use xlink:href="#mbef4f72cbc" x="116.142324" y="228.57123" style="stroke: #000000"/>
     <use xlink:href="#mbef4f72cbc" x="116.117314" y="228.604058" style="stroke: #000000"/>
     <use xlink:href="#mbef4f72cbc" x="116.099589" y="228.627319" style="stroke: #000000"/>
     <use xlink:href="#mbef4f72cbc" x="116.087027" y="228.643803" style="stroke: #000000"/>
     <use xlink:href="#mbef4f72cbc" x="116.078124" y="228.655484" style="stroke: #000000"/>
     <use xlink:href="#mbef4f72cbc" x="116.071815" y="228.663761" style="stroke: #000000"/>
     <use xlink:href="#mbef4f72cbc" x="116.067344" y="228.669627" style="stroke: #000000"/>
     <use xlink:href="#mbef4f72cbc" x="116.064176" y="228.673784" style="stroke: #000000"/>
     <use xlink:href="#mbef4f72cbc" x="116.06193" y="228.67673" style="stroke: #000000"/>
     <use xlink:href="#mbef4f72cbc" x="116.060339" y="228.678817" style="stroke: #000000"/>
     <use xlink:href="#mbef4f72cbc" x="116.059211" y="228.680296" style="stroke: #000000"/>
     <use xlink:href="#mbef4f72cbc" x="116.058412" y="228.681345" style="stroke: #000000"/>
     <use xlink:href="#mbef4f72cbc" x="116.057846" y="228.682088" style="stroke: #000000"/>
     <use xlink:href="#mbef4f72cbc" x="116.057444" y="228.682614" style="stroke: #000000"/>
     <use xlink:href="#mbef4f72cbc" x="116.05716" y="228.682987" style="stroke: #000000"/>
     <use xlink:href="#mbef4f72cbc" x="116.056958" y="228.683252" style="stroke: #000000"/>
     <use xlink:href="#mbef4f72cbc" x="116.056816" y="228.683439" style="stroke: #000000"/>
     <use xlink:href="#mbef4f72cbc" x="116.056714" y="228.683572" style="stroke: #000000"/>
     <use xlink:href="#mbef4f72cbc" x="116.056643" y="228.683666" style="stroke: #000000"/>
     <use xlink:href="#mbef4f72cbc" x="116.056592" y="228.683733" style="stroke: #000000"/>
     <use xlink:href="#mbef4f72cbc" x="116.056556" y="228.68378" style="stroke: #000000"/>
     <use xlink:href="#mbef4f72cbc" x="116.05653" y="228.683813" style="stroke: #000000"/>
     <use xlink:href="#mbef4f72cbc" x="116.056512" y="228.683837" style="stroke: #000000"/>
     <use xlink:href="#mbef4f72cbc" x="116.056499" y="228.683854" style="stroke: #000000"/>
     <use xlink:href="#mbef4f72cbc" x="116.05649" y="228.683866" style="stroke: #000000"/>
    </g>
   </g>
   <g id="patch_5">
    <path d="M 44.059375 305.761812 
L 44.059375 33.961812 
" style="fill: none; stroke: #000000; stroke-width: 0.8; stroke-linejoin: miter; stroke-linecap: square"/>
   </g>
   <g id="patch_6">
    <path d="M 323.059375 305.761812 
L 323.059375 33.961812 
" style="fill: none; stroke: #000000; stroke-width: 0.8; stroke-linejoin: miter; stroke-linecap: square"/>
   </g>
   <g id="patch_7">
    <path d="M 44.059375 305.761812 
L 323.059375 305.761812 
" style="fill: none; stroke: #000000; stroke-width: 0.8; stroke-linejoin: miter; stroke-linecap: square"/>
   </g>
   <g id="patch_8">
    <path d="M 44.059375 33.961812 
L 323.059375 33.961812 
" style="fill: none; stroke: #000000; stroke-width: 0.8; stroke-linejoin: miter; stroke-linecap: square"/>
   </g>
   <g id="text_15">
    <!-- Perturbation -->
    <g style="fill: #ff0000" transform="translate(88.129289 228.61016)rotate(-325)scale(0.1 -0.1)">
     <defs>
      <path id="DejaVuSans-50" d="M 1259 4147 
L 1259 2394 
L 2053 2394 
Q 2494 2394 2734 2622 
Q 2975 2850 2975 3272 
Q 2975 3691 2734 3919 
Q 2494 4147 2053 4147 
L 1259 4147 
z
M 628 4666 
L 2053 4666 
Q 2838 4666 3239 4311 
Q 3641 3956 3641 3272 
Q 3641 2581 3239 2228 
Q 2838 1875 2053 1875 
L 1259 1875 
L 1259 0 
L 628 0 
L 628 4666 
z
" transform="scale(0.015625)"/>
      <path id="DejaVuSans-75" d="M 544 1381 
L 544 3500 
L 1119 3500 
L 1119 1403 
Q 1119 906 1312 657 
Q 1506 409 1894 409 
Q 2359 409 2629 706 
Q 2900 1003 2900 1516 
L 2900 3500 
L 3475 3500 
L 3475 0 
L 2900 0 
L 2900 538 
Q 2691 219 2414 64 
Q 2138 -91 1772 -91 
Q 1169 -91 856 284 
Q 544 659 544 1381 
z
M 1991 3584 
L 1991 3584 
z
" transform="scale(0.015625)"/>
     </defs>
     <use xlink:href="#DejaVuSans-50"/>
     <use xlink:href="#DejaVuSans-65" x="56.677734"/>
     <use xlink:href="#DejaVuSans-72" x="118.201172"/>
     <use xlink:href="#DejaVuSans-74" x="159.314453"/>
     <use xlink:href="#DejaVuSans-75" x="198.523438"/>
     <use xlink:href="#DejaVuSans-72" x="261.902344"/>
     <use xlink:href="#DejaVuSans-62" x="303.015625"/>
     <use xlink:href="#DejaVuSans-61" x="366.492188"/>
     <use xlink:href="#DejaVuSans-74" x="427.771484"/>
     <use xlink:href="#DejaVuSans-69" x="466.980469"/>
     <use xlink:href="#DejaVuSans-6f" x="494.763672"/>
     <use xlink:href="#DejaVuSans-6e" x="555.945312"/>
    </g>
   </g>
   <g id="text_16">
    <!-- Stabilising dynamics -->
    <g transform="translate(160.947915 251.270173)rotate(-70)scale(0.1 -0.1)">
     <defs>
      <path id="DejaVuSans-53" d="M 3425 4513 
L 3425 3897 
Q 3066 4069 2747 4153 
Q 2428 4238 2131 4238 
Q 1616 4238 1336 4038 
Q 1056 3838 1056 3469 
Q 1056 3159 1242 3001 
Q 1428 2844 1947 2747 
L 2328 2669 
Q 3034 2534 3370 2195 
Q 3706 1856 3706 1288 
Q 3706 609 3251 259 
Q 2797 -91 1919 -91 
Q 1588 -91 1214 -16 
Q 841 59 441 206 
L 441 856 
Q 825 641 1194 531 
Q 1563 422 1919 422 
Q 2459 422 2753 634 
Q 3047 847 3047 1241 
Q 3047 1584 2836 1778 
Q 2625 1972 2144 2069 
L 1759 2144 
Q 1053 2284 737 2584 
Q 422 2884 422 3419 
Q 422 4038 858 4394 
Q 1294 4750 2059 4750 
Q 2388 4750 2728 4690 
Q 3069 4631 3425 4513 
z
" transform="scale(0.015625)"/>
      <path id="DejaVuSans-6c" d="M 603 4863 
L 1178 4863 
L 1178 0 
L 603 0 
L 603 4863 
z
" transform="scale(0.015625)"/>
      <path id="DejaVuSans-73" d="M 2834 3397 
L 2834 2853 
Q 2591 2978 2328 3040 
Q 2066 3103 1784 3103 
Q 1356 3103 1142 2972 
Q 928 2841 928 2578 
Q 928 2378 1081 2264 
Q 1234 2150 1697 2047 
L 1894 2003 
Q 2506 1872 2764 1633 
Q 3022 1394 3022 966 
Q 3022 478 2636 193 
Q 2250 -91 1575 -91 
Q 1294 -91 989 -36 
Q 684 19 347 128 
L 347 722 
Q 666 556 975 473 
Q 1284 391 1588 391 
Q 1994 391 2212 530 
Q 2431 669 2431 922 
Q 2431 1156 2273 1281 
Q 2116 1406 1581 1522 
L 1381 1569 
Q 847 1681 609 1914 
Q 372 2147 372 2553 
Q 372 3047 722 3315 
Q 1072 3584 1716 3584 
Q 2034 3584 2315 3537 
Q 2597 3491 2834 3397 
z
" transform="scale(0.015625)"/>
      <path id="DejaVuSans-67" d="M 2906 1791 
Q 2906 2416 2648 2759 
Q 2391 3103 1925 3103 
Q 1463 3103 1205 2759 
Q 947 2416 947 1791 
Q 947 1169 1205 825 
Q 1463 481 1925 481 
Q 2391 481 2648 825 
Q 2906 1169 2906 1791 
z
M 3481 434 
Q 3481 -459 3084 -895 
Q 2688 -1331 1869 -1331 
Q 1566 -1331 1297 -1286 
Q 1028 -1241 775 -1147 
L 775 -588 
Q 1028 -725 1275 -790 
Q 1522 -856 1778 -856 
Q 2344 -856 2625 -561 
Q 2906 -266 2906 331 
L 2906 616 
Q 2728 306 2450 153 
Q 2172 0 1784 0 
Q 1141 0 747 490 
Q 353 981 353 1791 
Q 353 2603 747 3093 
Q 1141 3584 1784 3584 
Q 2172 3584 2450 3431 
Q 2728 3278 2906 2969 
L 2906 3500 
L 3481 3500 
L 3481 434 
z
" transform="scale(0.015625)"/>
      <path id="DejaVuSans-64" d="M 2906 2969 
L 2906 4863 
L 3481 4863 
L 3481 0 
L 2906 0 
L 2906 525 
Q 2725 213 2448 61 
Q 2172 -91 1784 -91 
Q 1150 -91 751 415 
Q 353 922 353 1747 
Q 353 2572 751 3078 
Q 1150 3584 1784 3584 
Q 2172 3584 2448 3432 
Q 2725 3281 2906 2969 
z
M 947 1747 
Q 947 1113 1208 752 
Q 1469 391 1925 391 
Q 2381 391 2643 752 
Q 2906 1113 2906 1747 
Q 2906 2381 2643 2742 
Q 2381 3103 1925 3103 
Q 1469 3103 1208 2742 
Q 947 2381 947 1747 
z
" transform="scale(0.015625)"/>
     </defs>
     <use xlink:href="#DejaVuSans-53"/>
     <use xlink:href="#DejaVuSans-74" x="63.476562"/>
     <use xlink:href="#DejaVuSans-61" x="102.685547"/>
     <use xlink:href="#DejaVuSans-62" x="163.964844"/>
     <use xlink:href="#DejaVuSans-69" x="227.441406"/>
     <use xlink:href="#DejaVuSans-6c" x="255.224609"/>
     <use xlink:href="#DejaVuSans-69" x="283.007812"/>
     <use xlink:href="#DejaVuSans-73" x="310.791016"/>
     <use xlink:href="#DejaVuSans-69" x="362.890625"/>
     <use xlink:href="#DejaVuSans-6e" x="390.673828"/>
     <use xlink:href="#DejaVuSans-67" x="454.052734"/>
     <use xlink:href="#DejaVuSans-20" x="517.529297"/>
     <use xlink:href="#DejaVuSans-64" x="549.316406"/>
     <use xlink:href="#DejaVuSans-79" x="612.792969"/>
     <use xlink:href="#DejaVuSans-6e" x="671.972656"/>
     <use xlink:href="#DejaVuSans-61" x="735.351562"/>
     <use xlink:href="#DejaVuSans-6d" x="796.630859"/>
     <use xlink:href="#DejaVuSans-69" x="894.042969"/>
     <use xlink:href="#DejaVuSans-63" x="921.826172"/>
     <use xlink:href="#DejaVuSans-73" x="976.806641"/>
    </g>
   </g>
   <g id="text_17">
    <!-- Inhibitory feedback, -->
    <g transform="translate(120.909219 15.558281)scale(0.11 -0.11)">
     <defs>
      <path id="DejaVuSans-Bold-49" d="M 588 4666 
L 1791 4666 
L 1791 0 
L 588 0 
L 588 4666 
z
" transform="scale(0.015625)"/>
      <path id="DejaVuSans-Bold-6e" d="M 4056 2131 
L 4056 0 
L 2931 0 
L 2931 347 
L 2931 1631 
Q 2931 2084 2911 2256 
Q 2891 2428 2841 2509 
Q 2775 2619 2662 2680 
Q 2550 2741 2406 2741 
Q 2056 2741 1856 2470 
Q 1656 2200 1656 1722 
L 1656 0 
L 538 0 
L 538 3500 
L 1656 3500 
L 1656 2988 
Q 1909 3294 2193 3439 
Q 2478 3584 2822 3584 
Q 3428 3584 3742 3212 
Q 4056 2841 4056 2131 
z
" transform="scale(0.015625)"/>
      <path id="DejaVuSans-Bold-68" d="M 4056 2131 
L 4056 0 
L 2931 0 
L 2931 347 
L 2931 1625 
Q 2931 2084 2911 2256 
Q 2891 2428 2841 2509 
Q 2775 2619 2662 2680 
Q 2550 2741 2406 2741 
Q 2056 2741 1856 2470 
Q 1656 2200 1656 1722 
L 1656 0 
L 538 0 
L 538 4863 
L 1656 4863 
L 1656 2988 
Q 1909 3294 2193 3439 
Q 2478 3584 2822 3584 
Q 3428 3584 3742 3212 
Q 4056 2841 4056 2131 
z
" transform="scale(0.015625)"/>
      <path id="DejaVuSans-Bold-69" d="M 538 3500 
L 1656 3500 
L 1656 0 
L 538 0 
L 538 3500 
z
M 538 4863 
L 1656 4863 
L 1656 3950 
L 538 3950 
L 538 4863 
z
" transform="scale(0.015625)"/>
      <path id="DejaVuSans-Bold-62" d="M 2400 722 
Q 2759 722 2948 984 
Q 3138 1247 3138 1747 
Q 3138 2247 2948 2509 
Q 2759 2772 2400 2772 
Q 2041 2772 1848 2508 
Q 1656 2244 1656 1747 
Q 1656 1250 1848 986 
Q 2041 722 2400 722 
z
M 1656 2988 
Q 1888 3294 2169 3439 
Q 2450 3584 2816 3584 
Q 3463 3584 3878 3070 
Q 4294 2556 4294 1747 
Q 4294 938 3878 423 
Q 3463 -91 2816 -91 
Q 2450 -91 2169 54 
Q 1888 200 1656 506 
L 1656 0 
L 538 0 
L 538 4863 
L 1656 4863 
L 1656 2988 
z
" transform="scale(0.015625)"/>
      <path id="DejaVuSans-Bold-74" d="M 1759 4494 
L 1759 3500 
L 2913 3500 
L 2913 2700 
L 1759 2700 
L 1759 1216 
Q 1759 972 1856 886 
Q 1953 800 2241 800 
L 2816 800 
L 2816 0 
L 1856 0 
Q 1194 0 917 276 
Q 641 553 641 1216 
L 641 2700 
L 84 2700 
L 84 3500 
L 641 3500 
L 641 4494 
L 1759 4494 
z
" transform="scale(0.015625)"/>
      <path id="DejaVuSans-Bold-6f" d="M 2203 2784 
Q 1831 2784 1636 2517 
Q 1441 2250 1441 1747 
Q 1441 1244 1636 976 
Q 1831 709 2203 709 
Q 2569 709 2762 976 
Q 2956 1244 2956 1747 
Q 2956 2250 2762 2517 
Q 2569 2784 2203 2784 
z
M 2203 3584 
Q 3106 3584 3614 3096 
Q 4122 2609 4122 1747 
Q 4122 884 3614 396 
Q 3106 -91 2203 -91 
Q 1297 -91 786 396 
Q 275 884 275 1747 
Q 275 2609 786 3096 
Q 1297 3584 2203 3584 
z
" transform="scale(0.015625)"/>
      <path id="DejaVuSans-Bold-72" d="M 3138 2547 
Q 2991 2616 2845 2648 
Q 2700 2681 2553 2681 
Q 2122 2681 1889 2404 
Q 1656 2128 1656 1613 
L 1656 0 
L 538 0 
L 538 3500 
L 1656 3500 
L 1656 2925 
Q 1872 3269 2151 3426 
Q 2431 3584 2822 3584 
Q 2878 3584 2943 3579 
Q 3009 3575 3134 3559 
L 3138 2547 
z
" transform="scale(0.015625)"/>
      <path id="DejaVuSans-Bold-79" d="M 78 3500 
L 1197 3500 
L 2138 1125 
L 2938 3500 
L 4056 3500 
L 2584 -331 
Q 2363 -916 2067 -1148 
Q 1772 -1381 1288 -1381 
L 641 -1381 
L 641 -647 
L 991 -647 
Q 1275 -647 1404 -556 
Q 1534 -466 1606 -231 
L 1638 -134 
L 78 3500 
z
" transform="scale(0.015625)"/>
      <path id="DejaVuSans-Bold-20" transform="scale(0.015625)"/>
      <path id="DejaVuSans-Bold-66" d="M 2841 4863 
L 2841 4128 
L 2222 4128 
Q 1984 4128 1890 4042 
Q 1797 3956 1797 3744 
L 1797 3500 
L 2753 3500 
L 2753 2700 
L 1797 2700 
L 1797 0 
L 678 0 
L 678 2700 
L 122 2700 
L 122 3500 
L 678 3500 
L 678 3744 
Q 678 4316 997 4589 
Q 1316 4863 1984 4863 
L 2841 4863 
z
" transform="scale(0.015625)"/>
      <path id="DejaVuSans-Bold-65" d="M 4031 1759 
L 4031 1441 
L 1416 1441 
Q 1456 1047 1700 850 
Q 1944 653 2381 653 
Q 2734 653 3104 758 
Q 3475 863 3866 1075 
L 3866 213 
Q 3469 63 3072 -14 
Q 2675 -91 2278 -91 
Q 1328 -91 801 392 
Q 275 875 275 1747 
Q 275 2603 792 3093 
Q 1309 3584 2216 3584 
Q 3041 3584 3536 3087 
Q 4031 2591 4031 1759 
z
M 2881 2131 
Q 2881 2450 2695 2645 
Q 2509 2841 2209 2841 
Q 1884 2841 1681 2658 
Q 1478 2475 1428 2131 
L 2881 2131 
z
" transform="scale(0.015625)"/>
      <path id="DejaVuSans-Bold-64" d="M 2919 2988 
L 2919 4863 
L 4044 4863 
L 4044 0 
L 2919 0 
L 2919 506 
Q 2688 197 2409 53 
Q 2131 -91 1766 -91 
Q 1119 -91 703 423 
Q 288 938 288 1747 
Q 288 2556 703 3070 
Q 1119 3584 1766 3584 
Q 2128 3584 2408 3439 
Q 2688 3294 2919 2988 
z
M 2181 722 
Q 2541 722 2730 984 
Q 2919 1247 2919 1747 
Q 2919 2247 2730 2509 
Q 2541 2772 2181 2772 
Q 1825 2772 1636 2509 
Q 1447 2247 1447 1747 
Q 1447 1247 1636 984 
Q 1825 722 2181 722 
z
" transform="scale(0.015625)"/>
      <path id="DejaVuSans-Bold-61" d="M 2106 1575 
Q 1756 1575 1579 1456 
Q 1403 1338 1403 1106 
Q 1403 894 1545 773 
Q 1688 653 1941 653 
Q 2256 653 2472 879 
Q 2688 1106 2688 1447 
L 2688 1575 
L 2106 1575 
z
M 3816 1997 
L 3816 0 
L 2688 0 
L 2688 519 
Q 2463 200 2181 54 
Q 1900 -91 1497 -91 
Q 953 -91 614 226 
Q 275 544 275 1050 
Q 275 1666 698 1953 
Q 1122 2241 2028 2241 
L 2688 2241 
L 2688 2328 
Q 2688 2594 2478 2717 
Q 2269 2841 1825 2841 
Q 1466 2841 1156 2769 
Q 847 2697 581 2553 
L 581 3406 
Q 941 3494 1303 3539 
Q 1666 3584 2028 3584 
Q 2975 3584 3395 3211 
Q 3816 2838 3816 1997 
z
" transform="scale(0.015625)"/>
      <path id="DejaVuSans-Bold-63" d="M 3366 3391 
L 3366 2478 
Q 3138 2634 2908 2709 
Q 2678 2784 2431 2784 
Q 1963 2784 1702 2511 
Q 1441 2238 1441 1747 
Q 1441 1256 1702 982 
Q 1963 709 2431 709 
Q 2694 709 2930 787 
Q 3166 866 3366 1019 
L 3366 103 
Q 3103 6 2833 -42 
Q 2563 -91 2291 -91 
Q 1344 -91 809 395 
Q 275 881 275 1747 
Q 275 2613 809 3098 
Q 1344 3584 2291 3584 
Q 2566 3584 2833 3536 
Q 3100 3488 3366 3391 
z
" transform="scale(0.015625)"/>
      <path id="DejaVuSans-Bold-6b" d="M 538 4863 
L 1656 4863 
L 1656 2216 
L 2944 3500 
L 4244 3500 
L 2534 1894 
L 4378 0 
L 3022 0 
L 1656 1459 
L 1656 0 
L 538 0 
L 538 4863 
z
" transform="scale(0.015625)"/>
      <path id="DejaVuSans-Bold-2c" d="M 653 1209 
L 1778 1209 
L 1778 256 
L 1006 -909 
L 341 -909 
L 653 256 
L 653 1209 
z
" transform="scale(0.015625)"/>
     </defs>
     <use xlink:href="#DejaVuSans-Bold-49"/>
     <use xlink:href="#DejaVuSans-Bold-6e" x="37.207031"/>
     <use xlink:href="#DejaVuSans-Bold-68" x="108.398438"/>
     <use xlink:href="#DejaVuSans-Bold-69" x="179.589844"/>
     <use xlink:href="#DejaVuSans-Bold-62" x="213.867188"/>
     <use xlink:href="#DejaVuSans-Bold-69" x="285.449219"/>
     <use xlink:href="#DejaVuSans-Bold-74" x="319.726562"/>
     <use xlink:href="#DejaVuSans-Bold-6f" x="367.529297"/>
     <use xlink:href="#DejaVuSans-Bold-72" x="436.230469"/>
     <use xlink:href="#DejaVuSans-Bold-79" x="485.546875"/>
     <use xlink:href="#DejaVuSans-Bold-20" x="550.732422"/>
     <use xlink:href="#DejaVuSans-Bold-66" x="585.546875"/>
     <use xlink:href="#DejaVuSans-Bold-65" x="629.052734"/>
     <use xlink:href="#DejaVuSans-Bold-65" x="696.875"/>
     <use xlink:href="#DejaVuSans-Bold-64" x="764.697266"/>
     <use xlink:href="#DejaVuSans-Bold-62" x="836.279297"/>
     <use xlink:href="#DejaVuSans-Bold-61" x="907.861328"/>
     <use xlink:href="#DejaVuSans-Bold-63" x="975.341797"/>
     <use xlink:href="#DejaVuSans-Bold-6b" x="1034.619141"/>
     <use xlink:href="#DejaVuSans-Bold-2c" x="1101.123047"/>
    </g>
    <!-- with weakened excitatory feedback -->
    <g transform="translate(73.127969 27.961812)scale(0.11 -0.11)">
     <defs>
      <path id="DejaVuSans-Bold-77" d="M 225 3500 
L 1313 3500 
L 1900 1088 
L 2491 3500 
L 3425 3500 
L 4013 1113 
L 4603 3500 
L 5691 3500 
L 4769 0 
L 3547 0 
L 2956 2406 
L 2369 0 
L 1147 0 
L 225 3500 
z
" transform="scale(0.015625)"/>
      <path id="DejaVuSans-Bold-78" d="M 1422 1791 
L 159 3500 
L 1344 3500 
L 2059 2463 
L 2784 3500 
L 3969 3500 
L 2706 1797 
L 4031 0 
L 2847 0 
L 2059 1106 
L 1281 0 
L 97 0 
L 1422 1791 
z
" transform="scale(0.015625)"/>
     </defs>
     <use xlink:href="#DejaVuSans-Bold-77"/>
     <use xlink:href="#DejaVuSans-Bold-69" x="92.382812"/>
     <use xlink:href="#DejaVuSans-Bold-74" x="126.660156"/>
     <use xlink:href="#DejaVuSans-Bold-68" x="174.462891"/>
     <use xlink:href="#DejaVuSans-Bold-20" x="245.654297"/>
     <use xlink:href="#DejaVuSans-Bold-77" x="280.46875"/>
     <use xlink:href="#DejaVuSans-Bold-65" x="372.851562"/>
     <use xlink:href="#DejaVuSans-Bold-61" x="440.673828"/>
     <use xlink:href="#DejaVuSans-Bold-6b" x="508.154297"/>
     <use xlink:href="#DejaVuSans-Bold-65" x="572.033203"/>
     <use xlink:href="#DejaVuSans-Bold-6e" x="639.855469"/>
     <use xlink:href="#DejaVuSans-Bold-65" x="711.046875"/>
     <use xlink:href="#DejaVuSans-Bold-64" x="778.869141"/>
     <use xlink:href="#DejaVuSans-Bold-20" x="850.451172"/>
     <use xlink:href="#DejaVuSans-Bold-65" x="885.265625"/>
     <use xlink:href="#DejaVuSans-Bold-78" x="953.087891"/>
     <use xlink:href="#DejaVuSans-Bold-63" x="1017.589844"/>
     <use xlink:href="#DejaVuSans-Bold-69" x="1076.867188"/>
     <use xlink:href="#DejaVuSans-Bold-74" x="1111.144531"/>
     <use xlink:href="#DejaVuSans-Bold-61" x="1158.947266"/>
     <use xlink:href="#DejaVuSans-Bold-74" x="1226.427734"/>
     <use xlink:href="#DejaVuSans-Bold-6f" x="1274.230469"/>
     <use xlink:href="#DejaVuSans-Bold-72" x="1342.931641"/>
     <use xlink:href="#DejaVuSans-Bold-79" x="1392.248047"/>
     <use xlink:href="#DejaVuSans-Bold-20" x="1457.433594"/>
     <use xlink:href="#DejaVuSans-Bold-66" x="1492.248047"/>
     <use xlink:href="#DejaVuSans-Bold-65" x="1535.753906"/>
     <use xlink:href="#DejaVuSans-Bold-65" x="1603.576172"/>
     <use xlink:href="#DejaVuSans-Bold-64" x="1671.398438"/>
     <use xlink:href="#DejaVuSans-Bold-62" x="1742.980469"/>
     <use xlink:href="#DejaVuSans-Bold-61" x="1814.5625"/>
     <use xlink:href="#DejaVuSans-Bold-63" x="1882.042969"/>
     <use xlink:href="#DejaVuSans-Bold-6b" x="1941.320312"/>
    </g>
   </g>
   <g id="legend_1">
    <g id="line2d_16">
     <path d="M 80.959375 47.06025 
L 90.959375 47.06025 
L 100.959375 47.06025 
" style="fill: none; stroke: #1f77b4; stroke-opacity: 0.4; stroke-width: 3; stroke-linecap: square"/>
    </g>
    <g id="text_18">
     <!-- m_E nullcline -->
     <g transform="translate(108.959375 50.56025)scale(0.1 -0.1)">
      <defs>
       <path id="DejaVuSans-45" d="M 628 4666 
L 3578 4666 
L 3578 4134 
L 1259 4134 
L 1259 2753 
L 3481 2753 
L 3481 2222 
L 1259 2222 
L 1259 531 
L 3634 531 
L 3634 0 
L 628 0 
L 628 4666 
z
" transform="scale(0.015625)"/>
      </defs>
      <use xlink:href="#DejaVuSans-6d"/>
      <use xlink:href="#DejaVuSans-5f" x="97.412109"/>
      <use xlink:href="#DejaVuSans-45" x="147.412109"/>
      <use xlink:href="#DejaVuSans-20" x="210.595703"/>
      <use xlink:href="#DejaVuSans-6e" x="242.382812"/>
      <use xlink:href="#DejaVuSans-75" x="305.761719"/>
      <use xlink:href="#DejaVuSans-6c" x="369.140625"/>
      <use xlink:href="#DejaVuSans-6c" x="396.923828"/>
      <use xlink:href="#DejaVuSans-63" x="424.707031"/>
      <use xlink:href="#DejaVuSans-6c" x="479.6875"/>
      <use xlink:href="#DejaVuSans-69" x="507.470703"/>
      <use xlink:href="#DejaVuSans-6e" x="535.253906"/>
      <use xlink:href="#DejaVuSans-65" x="598.632812"/>
     </g>
    </g>
    <g id="line2d_17">
     <path d="M 80.959375 62.0165 
L 90.959375 62.0165 
L 100.959375 62.0165 
" style="fill: none; stroke: #ff7f0e; stroke-opacity: 0.4; stroke-width: 3; stroke-linecap: square"/>
    </g>
    <g id="text_19">
     <!-- m_I nullcline -->
     <g transform="translate(108.959375 65.5165)scale(0.1 -0.1)">
      <defs>
       <path id="DejaVuSans-49" d="M 628 4666 
L 1259 4666 
L 1259 0 
L 628 0 
L 628 4666 
z
" transform="scale(0.015625)"/>
      </defs>
      <use xlink:href="#DejaVuSans-6d"/>
      <use xlink:href="#DejaVuSans-5f" x="97.412109"/>
      <use xlink:href="#DejaVuSans-49" x="147.412109"/>
      <use xlink:href="#DejaVuSans-20" x="176.904297"/>
      <use xlink:href="#DejaVuSans-6e" x="208.691406"/>
      <use xlink:href="#DejaVuSans-75" x="272.070312"/>
      <use xlink:href="#DejaVuSans-6c" x="335.449219"/>
      <use xlink:href="#DejaVuSans-6c" x="363.232422"/>
      <use xlink:href="#DejaVuSans-63" x="391.015625"/>
      <use xlink:href="#DejaVuSans-6c" x="445.996094"/>
      <use xlink:href="#DejaVuSans-69" x="473.779297"/>
      <use xlink:href="#DejaVuSans-6e" x="501.5625"/>
      <use xlink:href="#DejaVuSans-65" x="564.941406"/>
     </g>
    </g>
   </g>
  </g>
 </g>
 <defs>
  <clipPath id="p97c9c94a8a">
   <rect x="44.059375" y="33.961812" width="279" height="271.8"/>
  </clipPath>
 </defs>
</svg>
